<svg xmlns="http://www.w3.org/2000/svg" xmlns:xlink="http://www.w3.org/1999/xlink" width="141pt" height="156pt" viewBox="0.00 0.00 140.71 155.81">
<g id="graph0" class="graph" transform="scale(1 1) rotate(0) translate(4 151.81)">
<title>%3</title>
<polygon fill="white" stroke="transparent" points="-4,4 -4,-151.81 136.71,-151.81 136.71,4 -4,4"/>
<!-- 1 -->
<g id="node1" class="node">
<title>1</title>
<ellipse fill="none" stroke="black" cx="33.49" cy="-18" rx="18" ry="18"/>
<text text-anchor="middle" x="33.49" y="-14.3" font-family="Times,serif" font-size="14.00">1</text>
</g>
<!-- 2 -->
<g id="node2" class="node">
<title>2</title>
<ellipse fill="none" stroke="black" cx="114.71" cy="-41.72" rx="18" ry="18"/>
<text text-anchor="middle" x="114.71" y="-38.02" font-family="Times,serif" font-size="14.00">2</text>
</g>
<!-- 1&#45;&#45;2 -->
<g id="edge1" class="edge">
<title>1--2</title>
<path fill="none" stroke="black" d="M51.12,-23.15C64.83,-27.15 83.76,-32.68 97.4,-36.67"/>
</g>
<!-- 5 -->
<g id="node5" class="node">
<title>5</title>
<ellipse fill="none" stroke="black" cx="18" cy="-101.14" rx="18" ry="18"/>
<text text-anchor="middle" x="18" y="-97.44" font-family="Times,serif" font-size="14.00">5</text>
</g>
<!-- 1&#45;&#45;5 -->
<g id="edge2" class="edge">
<title>1--5</title>
<path fill="none" stroke="black" d="M30.13,-36.04C27.52,-50.08 23.9,-69.46 21.3,-83.42"/>
</g>
<!-- 3 -->
<g id="node3" class="node">
<title>3</title>
<ellipse fill="none" stroke="black" cx="76.56" cy="-87.75" rx="18" ry="18"/>
<text text-anchor="middle" x="76.56" y="-84.05" font-family="Times,serif" font-size="14.00">3</text>
</g>
<!-- 2&#45;&#45;3 -->
<g id="edge3" class="edge">
<title>2--3</title>
<path fill="none" stroke="black" d="M103.05,-55.78C98.32,-61.49 92.86,-68.07 88.14,-73.78"/>
</g>
<!-- 4 -->
<g id="node4" class="node">
<title>4</title>
<ellipse fill="none" stroke="black" cx="101.98" cy="-129.81" rx="18" ry="18"/>
<text text-anchor="middle" x="101.98" y="-126.11" font-family="Times,serif" font-size="14.00">4</text>
</g>
<!-- 2&#45;&#45;4 -->
<g id="edge4" class="edge">
<title>2--4</title>
<path fill="none" stroke="black" d="M112.13,-59.55C109.94,-74.73 106.8,-96.45 104.6,-111.7"/>
</g>
<!-- 3&#45;&#45;4 -->
<g id="edge5" class="edge">
<title>3--4</title>
<path fill="none" stroke="black" d="M86.02,-103.41C88.17,-106.96 90.45,-110.73 92.59,-114.27"/>
</g>
<!-- 3&#45;&#45;5 -->
<g id="edge6" class="edge">
<title>3--5</title>
<path fill="none" stroke="black" d="M58.99,-91.77C51.58,-93.46 42.97,-95.43 35.56,-97.12"/>
</g>
<!-- 4&#45;&#45;5 -->
<g id="edge7" class="edge">
<title>4--5</title>
<path fill="none" stroke="black" d="M84.58,-123.87C70.07,-118.91 49.51,-111.9 35.09,-106.97"/>
</g>
</g>
</svg>