<svg xmlns="http://www.w3.org/2000/svg" xmlns:xlink="http://www.w3.org/1999/xlink" width="485pt" height="485pt" viewBox="0.00 0.00 485.50 485.50">
<g id="graph0" class="graph" transform="scale(1 1) rotate(0) translate(4 481.5)">
<title>%3</title>
<polygon fill="white" stroke="transparent" points="-4,4 -4,-481.5 481.5,-481.5 481.5,4 -4,4"/>
<!-- 0,0 -->
<g id="node1" class="node">
<title>0,0</title>
<ellipse fill="none" stroke="black" cx="22.75" cy="-22.75" rx="18" ry="18"/>
<text text-anchor="middle" x="22.75" y="-19.05" font-family="Times,serif" font-size="14.00">0</text>
</g>
<!-- 0,1 -->
<g id="node3" class="node">
<title>0,1</title>
<ellipse fill="none" stroke="black" cx="22.75" cy="-94.75" rx="18" ry="18"/>
<text text-anchor="middle" x="22.75" y="-91.05" font-family="Times,serif" font-size="14.00">1</text>
</g>
<!-- 0,0&#45;&#45;0,1 -->
<g id="edge1" class="edge">
<title>0,0--0,1</title>
<path fill="none" stroke="black" d="M22.75,-40.92C22.75,-51.75 22.75,-65.46 22.75,-76.33"/>
</g>
<!-- 1,0 -->
<g id="node2" class="node">
<title>1,0</title>
<ellipse fill="none" stroke="black" cx="94.75" cy="-22.75" rx="23" ry="23"/>
<text text-anchor="middle" x="94.75" y="-19.05" font-family="Times,serif" font-size="14.00">46</text>
</g>
<!-- 1,1 -->
<g id="node4" class="node">
<title>1,1</title>
<ellipse fill="none" stroke="black" cx="94.75" cy="-94.75" rx="23" ry="23"/>
<text text-anchor="middle" x="94.75" y="-91.05" font-family="Times,serif" font-size="14.00">44</text>
</g>
<!-- 1,0&#45;&#45;1,1 -->
<g id="edge2" class="edge">
<title>1,0--1,1</title>
<path fill="none" stroke="black" d="M94.75,-45.53C94.75,-53.93 94.75,-63.45 94.75,-71.87"/>
</g>
<!-- 0,2 -->
<g id="node5" class="node">
<title>0,2</title>
<ellipse fill="none" stroke="black" cx="22.75" cy="-166.75" rx="18" ry="18"/>
<text text-anchor="middle" x="22.75" y="-163.05" font-family="Times,serif" font-size="14.00">2</text>
</g>
<!-- 0,1&#45;&#45;0,2 -->
<g id="edge3" class="edge">
<title>0,1--0,2</title>
<path fill="none" stroke="black" d="M22.75,-112.92C22.75,-123.75 22.75,-137.46 22.75,-148.33"/>
</g>
<!-- 1,2 -->
<g id="node6" class="node">
<title>1,2</title>
<ellipse fill="none" stroke="black" cx="94.75" cy="-166.75" rx="23" ry="23"/>
<text text-anchor="middle" x="94.75" y="-163.05" font-family="Times,serif" font-size="14.00">45</text>
</g>
<!-- 1,1&#45;&#45;1,2 -->
<g id="edge5" class="edge">
<title>1,1--1,2</title>
<path fill="none" stroke="black" d="M94.75,-117.53C94.75,-125.93 94.75,-135.45 94.75,-143.87"/>
</g>
<!-- 2,1 -->
<g id="node16" class="node">
<title>2,1</title>
<ellipse fill="none" stroke="black" cx="166.75" cy="-94.75" rx="23" ry="23"/>
<text text-anchor="middle" x="166.75" y="-91.05" font-family="Times,serif" font-size="14.00">41</text>
</g>
<!-- 1,1&#45;&#45;2,1 -->
<g id="edge4" class="edge">
<title>1,1--2,1</title>
<path fill="none" stroke="black" d="M117.53,-94.75C125.93,-94.75 135.45,-94.75 143.87,-94.75"/>
</g>
<!-- 0,3 -->
<g id="node7" class="node">
<title>0,3</title>
<ellipse fill="none" stroke="black" cx="22.75" cy="-238.75" rx="18" ry="18"/>
<text text-anchor="middle" x="22.75" y="-235.05" font-family="Times,serif" font-size="14.00">3</text>
</g>
<!-- 0,2&#45;&#45;0,3 -->
<g id="edge6" class="edge">
<title>0,2--0,3</title>
<path fill="none" stroke="black" d="M22.75,-184.92C22.75,-195.75 22.75,-209.46 22.75,-220.33"/>
</g>
<!-- 1,3 -->
<g id="node8" class="node">
<title>1,3</title>
<ellipse fill="none" stroke="black" cx="94.75" cy="-238.75" rx="18" ry="18"/>
<text text-anchor="middle" x="94.75" y="-235.05" font-family="Times,serif" font-size="14.00">4</text>
</g>
<!-- 0,3&#45;&#45;1,3 -->
<g id="edge7" class="edge">
<title>0,3--1,3</title>
<path fill="none" stroke="black" d="M40.92,-238.75C51.75,-238.75 65.46,-238.75 76.33,-238.75"/>
</g>
<!-- 1,4 -->
<g id="node10" class="node">
<title>1,4</title>
<ellipse fill="none" stroke="black" cx="94.75" cy="-310.75" rx="18" ry="18"/>
<text text-anchor="middle" x="94.75" y="-307.05" font-family="Times,serif" font-size="14.00">5</text>
</g>
<!-- 1,3&#45;&#45;1,4 -->
<g id="edge8" class="edge">
<title>1,3--1,4</title>
<path fill="none" stroke="black" d="M94.75,-256.92C94.75,-267.75 94.75,-281.46 94.75,-292.33"/>
</g>
<!-- 0,4 -->
<g id="node9" class="node">
<title>0,4</title>
<ellipse fill="none" stroke="black" cx="22.75" cy="-310.75" rx="23" ry="23"/>
<text text-anchor="middle" x="22.75" y="-307.05" font-family="Times,serif" font-size="14.00">29</text>
</g>
<!-- 0,5 -->
<g id="node11" class="node">
<title>0,5</title>
<ellipse fill="none" stroke="black" cx="22.75" cy="-382.75" rx="23" ry="23"/>
<text text-anchor="middle" x="22.75" y="-379.05" font-family="Times,serif" font-size="14.00">27</text>
</g>
<!-- 0,4&#45;&#45;0,5 -->
<g id="edge9" class="edge">
<title>0,4--0,5</title>
<path fill="none" stroke="black" d="M22.75,-333.53C22.75,-341.93 22.75,-351.45 22.75,-359.87"/>
</g>
<!-- 2,4 -->
<g id="node19" class="node">
<title>2,4</title>
<ellipse fill="none" stroke="black" cx="166.75" cy="-310.75" rx="18" ry="18"/>
<text text-anchor="middle" x="166.75" y="-307.05" font-family="Times,serif" font-size="14.00">6</text>
</g>
<!-- 1,4&#45;&#45;2,4 -->
<g id="edge10" class="edge">
<title>1,4--2,4</title>
<path fill="none" stroke="black" d="M112.92,-310.75C123.75,-310.75 137.46,-310.75 148.33,-310.75"/>
</g>
<!-- 1,5 -->
<g id="node12" class="node">
<title>1,5</title>
<ellipse fill="none" stroke="black" cx="94.75" cy="-382.75" rx="23" ry="23"/>
<text text-anchor="middle" x="94.75" y="-379.05" font-family="Times,serif" font-size="14.00">26</text>
</g>
<!-- 0,5&#45;&#45;1,5 -->
<g id="edge12" class="edge">
<title>0,5--1,5</title>
<path fill="none" stroke="black" d="M45.53,-382.75C53.93,-382.75 63.45,-382.75 71.87,-382.75"/>
</g>
<!-- 0,6 -->
<g id="node13" class="node">
<title>0,6</title>
<ellipse fill="none" stroke="black" cx="22.75" cy="-454.75" rx="23" ry="23"/>
<text text-anchor="middle" x="22.75" y="-451.05" font-family="Times,serif" font-size="14.00">28</text>
</g>
<!-- 0,5&#45;&#45;0,6 -->
<g id="edge11" class="edge">
<title>0,5--0,6</title>
<path fill="none" stroke="black" d="M22.75,-405.53C22.75,-413.93 22.75,-423.45 22.75,-431.87"/>
</g>
<!-- 1,6 -->
<g id="node14" class="node">
<title>1,6</title>
<ellipse fill="none" stroke="black" cx="94.75" cy="-454.75" rx="23" ry="23"/>
<text text-anchor="middle" x="94.75" y="-451.05" font-family="Times,serif" font-size="14.00">25</text>
</g>
<!-- 1,5&#45;&#45;1,6 -->
<g id="edge13" class="edge">
<title>1,5--1,6</title>
<path fill="none" stroke="black" d="M94.75,-405.53C94.75,-413.93 94.75,-423.45 94.75,-431.87"/>
</g>
<!-- 2,6 -->
<g id="node21" class="node">
<title>2,6</title>
<ellipse fill="none" stroke="black" cx="166.75" cy="-454.75" rx="23" ry="23"/>
<text text-anchor="middle" x="166.75" y="-451.05" font-family="Times,serif" font-size="14.00">24</text>
</g>
<!-- 1,6&#45;&#45;2,6 -->
<g id="edge14" class="edge">
<title>1,6--2,6</title>
<path fill="none" stroke="black" d="M117.53,-454.75C125.93,-454.75 135.45,-454.75 143.87,-454.75"/>
</g>
<!-- 2,0 -->
<g id="node15" class="node">
<title>2,0</title>
<ellipse fill="none" stroke="black" cx="166.75" cy="-22.75" rx="23" ry="23"/>
<text text-anchor="middle" x="166.75" y="-19.05" font-family="Times,serif" font-size="14.00">40</text>
</g>
<!-- 2,0&#45;&#45;2,1 -->
<g id="edge16" class="edge">
<title>2,0--2,1</title>
<path fill="none" stroke="black" d="M166.75,-45.53C166.75,-53.93 166.75,-63.45 166.75,-71.87"/>
</g>
<!-- 3,0 -->
<g id="node22" class="node">
<title>3,0</title>
<ellipse fill="none" stroke="black" cx="238.75" cy="-22.75" rx="23" ry="23"/>
<text text-anchor="middle" x="238.75" y="-19.05" font-family="Times,serif" font-size="14.00">39</text>
</g>
<!-- 2,0&#45;&#45;3,0 -->
<g id="edge15" class="edge">
<title>2,0--3,0</title>
<path fill="none" stroke="black" d="M189.53,-22.75C197.93,-22.75 207.45,-22.75 215.87,-22.75"/>
</g>
<!-- 3,1 -->
<g id="node23" class="node">
<title>3,1</title>
<ellipse fill="none" stroke="black" cx="238.75" cy="-94.75" rx="23" ry="23"/>
<text text-anchor="middle" x="238.75" y="-91.05" font-family="Times,serif" font-size="14.00">42</text>
</g>
<!-- 2,1&#45;&#45;3,1 -->
<g id="edge17" class="edge">
<title>2,1--3,1</title>
<path fill="none" stroke="black" d="M189.53,-94.75C197.93,-94.75 207.45,-94.75 215.87,-94.75"/>
</g>
<!-- 2,2 -->
<g id="node17" class="node">
<title>2,2</title>
<ellipse fill="none" stroke="black" cx="166.75" cy="-166.75" rx="18" ry="18"/>
<text text-anchor="middle" x="166.75" y="-163.05" font-family="Times,serif" font-size="14.00">8</text>
</g>
<!-- 2,3 -->
<g id="node18" class="node">
<title>2,3</title>
<ellipse fill="none" stroke="black" cx="166.75" cy="-238.75" rx="18" ry="18"/>
<text text-anchor="middle" x="166.75" y="-235.05" font-family="Times,serif" font-size="14.00">7</text>
</g>
<!-- 2,2&#45;&#45;2,3 -->
<g id="edge19" class="edge">
<title>2,2--2,3</title>
<path fill="none" stroke="black" d="M166.75,-184.92C166.75,-195.75 166.75,-209.46 166.75,-220.33"/>
</g>
<!-- 3,2 -->
<g id="node24" class="node">
<title>3,2</title>
<ellipse fill="none" stroke="black" cx="238.75" cy="-166.75" rx="18" ry="18"/>
<text text-anchor="middle" x="238.75" y="-163.05" font-family="Times,serif" font-size="14.00">9</text>
</g>
<!-- 2,2&#45;&#45;3,2 -->
<g id="edge18" class="edge">
<title>2,2--3,2</title>
<path fill="none" stroke="black" d="M184.92,-166.75C195.75,-166.75 209.46,-166.75 220.33,-166.75"/>
</g>
<!-- 2,3&#45;&#45;2,4 -->
<g id="edge20" class="edge">
<title>2,3--2,4</title>
<path fill="none" stroke="black" d="M166.75,-256.92C166.75,-267.75 166.75,-281.46 166.75,-292.33"/>
</g>
<!-- 2,5 -->
<g id="node20" class="node">
<title>2,5</title>
<ellipse fill="none" stroke="black" cx="166.75" cy="-382.75" rx="23" ry="23"/>
<text text-anchor="middle" x="166.75" y="-379.05" font-family="Times,serif" font-size="14.00">23</text>
</g>
<!-- 2,5&#45;&#45;2,6 -->
<g id="edge22" class="edge">
<title>2,5--2,6</title>
<path fill="none" stroke="black" d="M166.75,-405.53C166.75,-413.93 166.75,-423.45 166.75,-431.87"/>
</g>
<!-- 3,5 -->
<g id="node27" class="node">
<title>3,5</title>
<ellipse fill="none" stroke="black" cx="238.75" cy="-382.75" rx="23" ry="23"/>
<text text-anchor="middle" x="238.75" y="-379.05" font-family="Times,serif" font-size="14.00">22</text>
</g>
<!-- 2,5&#45;&#45;3,5 -->
<g id="edge21" class="edge">
<title>2,5--3,5</title>
<path fill="none" stroke="black" d="M189.53,-382.75C197.93,-382.75 207.45,-382.75 215.87,-382.75"/>
</g>
<!-- 3,6 -->
<g id="node28" class="node">
<title>3,6</title>
<ellipse fill="none" stroke="black" cx="238.75" cy="-454.75" rx="23" ry="23"/>
<text text-anchor="middle" x="238.75" y="-451.05" font-family="Times,serif" font-size="14.00">30</text>
</g>
<!-- 2,6&#45;&#45;3,6 -->
<g id="edge23" class="edge">
<title>2,6--3,6</title>
<path fill="none" stroke="black" d="M189.53,-454.75C197.93,-454.75 207.45,-454.75 215.87,-454.75"/>
</g>
<!-- 4,0 -->
<g id="node29" class="node">
<title>4,0</title>
<ellipse fill="none" stroke="black" cx="310.75" cy="-22.75" rx="23" ry="23"/>
<text text-anchor="middle" x="310.75" y="-19.05" font-family="Times,serif" font-size="14.00">38</text>
</g>
<!-- 3,0&#45;&#45;4,0 -->
<g id="edge24" class="edge">
<title>3,0--4,0</title>
<path fill="none" stroke="black" d="M261.53,-22.75C269.93,-22.75 279.45,-22.75 287.87,-22.75"/>
</g>
<!-- 4,1 -->
<g id="node30" class="node">
<title>4,1</title>
<ellipse fill="none" stroke="black" cx="310.75" cy="-94.75" rx="23" ry="23"/>
<text text-anchor="middle" x="310.75" y="-91.05" font-family="Times,serif" font-size="14.00">43</text>
</g>
<!-- 3,1&#45;&#45;4,1 -->
<g id="edge25" class="edge">
<title>3,1--4,1</title>
<path fill="none" stroke="black" d="M261.53,-94.75C269.93,-94.75 279.45,-94.75 287.87,-94.75"/>
</g>
<!-- 4,2 -->
<g id="node31" class="node">
<title>4,2</title>
<ellipse fill="none" stroke="black" cx="310.75" cy="-166.75" rx="23" ry="23"/>
<text text-anchor="middle" x="310.75" y="-163.05" font-family="Times,serif" font-size="14.00">10</text>
</g>
<!-- 3,2&#45;&#45;4,2 -->
<g id="edge26" class="edge">
<title>3,2--4,2</title>
<path fill="none" stroke="black" d="M256.92,-166.75C266.33,-166.75 277.92,-166.75 287.94,-166.75"/>
</g>
<!-- 3,3 -->
<g id="node25" class="node">
<title>3,3</title>
<ellipse fill="none" stroke="black" cx="238.75" cy="-238.75" rx="23" ry="23"/>
<text text-anchor="middle" x="238.75" y="-235.05" font-family="Times,serif" font-size="14.00">32</text>
</g>
<!-- 3,4 -->
<g id="node26" class="node">
<title>3,4</title>
<ellipse fill="none" stroke="black" cx="238.75" cy="-310.75" rx="23" ry="23"/>
<text text-anchor="middle" x="238.75" y="-307.05" font-family="Times,serif" font-size="14.00">31</text>
</g>
<!-- 3,3&#45;&#45;3,4 -->
<g id="edge27" class="edge">
<title>3,3--3,4</title>
<path fill="none" stroke="black" d="M238.75,-261.53C238.75,-269.93 238.75,-279.45 238.75,-287.87"/>
</g>
<!-- 3,4&#45;&#45;3,5 -->
<g id="edge28" class="edge">
<title>3,4--3,5</title>
<path fill="none" stroke="black" d="M238.75,-333.53C238.75,-341.93 238.75,-351.45 238.75,-359.87"/>
</g>
<!-- 4,5 -->
<g id="node34" class="node">
<title>4,5</title>
<ellipse fill="none" stroke="black" cx="310.75" cy="-382.75" rx="23" ry="23"/>
<text text-anchor="middle" x="310.75" y="-379.05" font-family="Times,serif" font-size="14.00">21</text>
</g>
<!-- 3,5&#45;&#45;4,5 -->
<g id="edge29" class="edge">
<title>3,5--4,5</title>
<path fill="none" stroke="black" d="M261.53,-382.75C269.93,-382.75 279.45,-382.75 287.87,-382.75"/>
</g>
<!-- 5,0 -->
<g id="node36" class="node">
<title>5,0</title>
<ellipse fill="none" stroke="black" cx="382.75" cy="-22.75" rx="23" ry="23"/>
<text text-anchor="middle" x="382.75" y="-19.05" font-family="Times,serif" font-size="14.00">37</text>
</g>
<!-- 4,0&#45;&#45;5,0 -->
<g id="edge30" class="edge">
<title>4,0--5,0</title>
<path fill="none" stroke="black" d="M333.53,-22.75C341.93,-22.75 351.45,-22.75 359.87,-22.75"/>
</g>
<!-- 4,3 -->
<g id="node32" class="node">
<title>4,3</title>
<ellipse fill="none" stroke="black" cx="310.75" cy="-238.75" rx="23" ry="23"/>
<text text-anchor="middle" x="310.75" y="-235.05" font-family="Times,serif" font-size="14.00">11</text>
</g>
<!-- 4,2&#45;&#45;4,3 -->
<g id="edge31" class="edge">
<title>4,2--4,3</title>
<path fill="none" stroke="black" d="M310.75,-189.53C310.75,-197.93 310.75,-207.45 310.75,-215.87"/>
</g>
<!-- 4,4 -->
<g id="node33" class="node">
<title>4,4</title>
<ellipse fill="none" stroke="black" cx="310.75" cy="-310.75" rx="23" ry="23"/>
<text text-anchor="middle" x="310.75" y="-307.05" font-family="Times,serif" font-size="14.00">12</text>
</g>
<!-- 4,3&#45;&#45;4,4 -->
<g id="edge32" class="edge">
<title>4,3--4,4</title>
<path fill="none" stroke="black" d="M310.75,-261.53C310.75,-269.93 310.75,-279.45 310.75,-287.87"/>
</g>
<!-- 5,4 -->
<g id="node40" class="node">
<title>5,4</title>
<ellipse fill="none" stroke="black" cx="382.75" cy="-310.75" rx="23" ry="23"/>
<text text-anchor="middle" x="382.75" y="-307.05" font-family="Times,serif" font-size="14.00">13</text>
</g>
<!-- 4,4&#45;&#45;5,4 -->
<g id="edge33" class="edge">
<title>4,4--5,4</title>
<path fill="none" stroke="black" d="M333.53,-310.75C341.93,-310.75 351.45,-310.75 359.87,-310.75"/>
</g>
<!-- 4,6 -->
<g id="node35" class="node">
<title>4,6</title>
<ellipse fill="none" stroke="black" cx="310.75" cy="-454.75" rx="23" ry="23"/>
<text text-anchor="middle" x="310.75" y="-451.05" font-family="Times,serif" font-size="14.00">20</text>
</g>
<!-- 4,5&#45;&#45;4,6 -->
<g id="edge34" class="edge">
<title>4,5--4,6</title>
<path fill="none" stroke="black" d="M310.75,-405.53C310.75,-413.93 310.75,-423.45 310.75,-431.87"/>
</g>
<!-- 5,5 -->
<g id="node41" class="node">
<title>5,5</title>
<ellipse fill="none" stroke="black" cx="382.75" cy="-382.75" rx="23" ry="23"/>
<text text-anchor="middle" x="382.75" y="-379.05" font-family="Times,serif" font-size="14.00">33</text>
</g>
<!-- 4,5&#45;&#45;5,5 -->
<g id="edge35" class="edge">
<title>4,5--5,5</title>
<path fill="none" stroke="black" d="M333.53,-382.75C341.93,-382.75 351.45,-382.75 359.87,-382.75"/>
</g>
<!-- 5,6 -->
<g id="node42" class="node">
<title>5,6</title>
<ellipse fill="none" stroke="black" cx="382.75" cy="-454.75" rx="23" ry="23"/>
<text text-anchor="middle" x="382.75" y="-451.05" font-family="Times,serif" font-size="14.00">19</text>
</g>
<!-- 4,6&#45;&#45;5,6 -->
<g id="edge36" class="edge">
<title>4,6--5,6</title>
<path fill="none" stroke="black" d="M333.53,-454.75C341.93,-454.75 351.45,-454.75 359.87,-454.75"/>
</g>
<!-- 5,1 -->
<g id="node37" class="node">
<title>5,1</title>
<ellipse fill="none" stroke="black" cx="382.75" cy="-94.75" rx="23" ry="23"/>
<text text-anchor="middle" x="382.75" y="-91.05" font-family="Times,serif" font-size="14.00">36</text>
</g>
<!-- 5,0&#45;&#45;5,1 -->
<g id="edge37" class="edge">
<title>5,0--5,1</title>
<path fill="none" stroke="black" d="M382.75,-45.53C382.75,-53.93 382.75,-63.45 382.75,-71.87"/>
</g>
<!-- 6,0 -->
<g id="node43" class="node">
<title>6,0</title>
<ellipse fill="none" stroke="black" cx="454.75" cy="-22.75" rx="23" ry="23"/>
<text text-anchor="middle" x="454.75" y="-19.05" font-family="Times,serif" font-size="14.00">47</text>
</g>
<!-- 5,0&#45;&#45;6,0 -->
<g id="edge38" class="edge">
<title>5,0--6,0</title>
<path fill="none" stroke="black" d="M405.53,-22.75C413.93,-22.75 423.45,-22.75 431.87,-22.75"/>
</g>
<!-- 5,2 -->
<g id="node38" class="node">
<title>5,2</title>
<ellipse fill="none" stroke="black" cx="382.75" cy="-166.75" rx="23" ry="23"/>
<text text-anchor="middle" x="382.75" y="-163.05" font-family="Times,serif" font-size="14.00">48</text>
</g>
<!-- 5,1&#45;&#45;5,2 -->
<g id="edge40" class="edge">
<title>5,1--5,2</title>
<path fill="none" stroke="black" d="M382.75,-117.53C382.75,-125.93 382.75,-135.45 382.75,-143.87"/>
</g>
<!-- 6,1 -->
<g id="node44" class="node">
<title>6,1</title>
<ellipse fill="none" stroke="black" cx="454.75" cy="-94.75" rx="23" ry="23"/>
<text text-anchor="middle" x="454.75" y="-91.05" font-family="Times,serif" font-size="14.00">35</text>
</g>
<!-- 5,1&#45;&#45;6,1 -->
<g id="edge39" class="edge">
<title>5,1--6,1</title>
<path fill="none" stroke="black" d="M405.53,-94.75C413.93,-94.75 423.45,-94.75 431.87,-94.75"/>
</g>
<!-- 5,3 -->
<g id="node39" class="node">
<title>5,3</title>
<ellipse fill="none" stroke="black" cx="382.75" cy="-238.75" rx="23" ry="23"/>
<text text-anchor="middle" x="382.75" y="-235.05" font-family="Times,serif" font-size="14.00">14</text>
</g>
<!-- 5,3&#45;&#45;5,4 -->
<g id="edge42" class="edge">
<title>5,3--5,4</title>
<path fill="none" stroke="black" d="M382.75,-261.53C382.75,-269.93 382.75,-279.45 382.75,-287.87"/>
</g>
<!-- 6,3 -->
<g id="node46" class="node">
<title>6,3</title>
<ellipse fill="none" stroke="black" cx="454.75" cy="-238.75" rx="23" ry="23"/>
<text text-anchor="middle" x="454.75" y="-235.05" font-family="Times,serif" font-size="14.00">15</text>
</g>
<!-- 5,3&#45;&#45;6,3 -->
<g id="edge41" class="edge">
<title>5,3--6,3</title>
<path fill="none" stroke="black" d="M405.53,-238.75C413.93,-238.75 423.45,-238.75 431.87,-238.75"/>
</g>
<!-- 6,6 -->
<g id="node49" class="node">
<title>6,6</title>
<ellipse fill="none" stroke="black" cx="454.75" cy="-454.75" rx="23" ry="23"/>
<text text-anchor="middle" x="454.75" y="-451.05" font-family="Times,serif" font-size="14.00">18</text>
</g>
<!-- 5,6&#45;&#45;6,6 -->
<g id="edge43" class="edge">
<title>5,6--6,6</title>
<path fill="none" stroke="black" d="M405.53,-454.75C413.93,-454.75 423.45,-454.75 431.87,-454.75"/>
</g>
<!-- 6,2 -->
<g id="node45" class="node">
<title>6,2</title>
<ellipse fill="none" stroke="black" cx="454.75" cy="-166.75" rx="23" ry="23"/>
<text text-anchor="middle" x="454.75" y="-163.05" font-family="Times,serif" font-size="14.00">34</text>
</g>
<!-- 6,1&#45;&#45;6,2 -->
<g id="edge44" class="edge">
<title>6,1--6,2</title>
<path fill="none" stroke="black" d="M454.75,-117.53C454.75,-125.93 454.75,-135.45 454.75,-143.87"/>
</g>
<!-- 6,2&#45;&#45;6,3 -->
<g id="edge45" class="edge">
<title>6,2--6,3</title>
<path fill="none" stroke="black" d="M454.75,-189.53C454.75,-197.93 454.75,-207.45 454.75,-215.87"/>
</g>
<!-- 6,4 -->
<g id="node47" class="node">
<title>6,4</title>
<ellipse fill="none" stroke="black" cx="454.75" cy="-310.75" rx="23" ry="23"/>
<text text-anchor="middle" x="454.75" y="-307.05" font-family="Times,serif" font-size="14.00">16</text>
</g>
<!-- 6,3&#45;&#45;6,4 -->
<g id="edge46" class="edge">
<title>6,3--6,4</title>
<path fill="none" stroke="black" d="M454.75,-261.53C454.75,-269.93 454.75,-279.45 454.75,-287.87"/>
</g>
<!-- 6,5 -->
<g id="node48" class="node">
<title>6,5</title>
<ellipse fill="none" stroke="black" cx="454.75" cy="-382.75" rx="23" ry="23"/>
<text text-anchor="middle" x="454.75" y="-379.05" font-family="Times,serif" font-size="14.00">17</text>
</g>
<!-- 6,4&#45;&#45;6,5 -->
<g id="edge47" class="edge">
<title>6,4--6,5</title>
<path fill="none" stroke="black" d="M454.75,-333.53C454.75,-341.93 454.75,-351.45 454.75,-359.87"/>
</g>
<!-- 6,5&#45;&#45;6,6 -->
<g id="edge48" class="edge">
<title>6,5--6,6</title>
<path fill="none" stroke="black" d="M454.75,-405.53C454.75,-413.93 454.75,-423.45 454.75,-431.87"/>
</g>
</g>
</svg>