<svg xmlns="http://www.w3.org/2000/svg" xmlns:xlink="http://www.w3.org/1999/xlink" width="693pt" height="332pt" viewBox="0.00 0.00 693.00 332.00">
<g id="graph0" class="graph" transform="scale(1 1) rotate(0) translate(4 328)">
<title>%3</title>
<polygon fill="white" stroke="transparent" points="-4,4 -4,-328 689,-328 689,4 -4,4"/>
<!-- 6,4 -->
<g id="node1" class="node">
<title>6,4</title>
<polygon fill="none" stroke="black" points="469,-324 433,-324 433,-288 469,-288 469,-324"/>
<text text-anchor="middle" x="451" y="-302.3" font-family="Times,serif" font-size="14.00">S</text>
</g>
<!-- 7,4 -->
<g id="node2" class="node">
<title>7,4</title>
<ellipse fill="none" stroke="black" cx="523" cy="-306" rx="18" ry="18"/>
</g>
<!-- 6,4&#45;&gt;7,4 -->
<g id="edge1" class="edge">
<title>6,4-&gt;7,4</title>
<path fill="none" stroke="black" d="M469.17,-306C476.87,-306 486.03,-306 494.58,-306"/>
<polygon fill="black" stroke="black" points="494.59,-309.5 504.59,-306 494.59,-302.5 494.59,-309.5"/>
<text text-anchor="middle" x="476.88" y="-309.8" font-family="Times,serif" font-size="14.00">1</text>
</g>
<!-- 8,4 -->
<g id="node3" class="node">
<title>8,4</title>
<ellipse fill="none" stroke="black" cx="595" cy="-306" rx="18" ry="18"/>
</g>
<!-- 7,4&#45;&gt;8,4 -->
<g id="edge2" class="edge">
<title>7,4-&gt;8,4</title>
<path fill="none" stroke="black" d="M541.17,-306C548.87,-306 558.03,-306 566.58,-306"/>
<polygon fill="black" stroke="black" points="566.59,-309.5 576.59,-306 566.59,-302.5 566.59,-309.5"/>
<text text-anchor="middle" x="548.88" y="-309.8" font-family="Times,serif" font-size="14.00">2</text>
</g>
<!-- 8,3 -->
<g id="node4" class="node">
<title>8,3</title>
<ellipse fill="none" stroke="black" cx="595" cy="-234" rx="18" ry="18"/>
</g>
<!-- 8,4&#45;&gt;8,3 -->
<g id="edge3" class="edge">
<title>8,4-&gt;8,3</title>
<path fill="none" stroke="black" d="M595,-287.83C595,-280.13 595,-270.97 595,-262.42"/>
<polygon fill="black" stroke="black" points="598.5,-262.41 595,-252.41 591.5,-262.41 598.5,-262.41"/>
<text text-anchor="middle" x="590" y="-263.92" font-family="Times,serif" font-size="14.00">3</text>
</g>
<!-- 9,4 -->
<g id="node50" class="node">
<title>9,4</title>
<ellipse fill="none" stroke="black" cx="667" cy="-306" rx="18" ry="18"/>
</g>
<!-- 8,4&#45;&gt;9,4 -->
<g id="edge4" class="edge">
<title>8,4-&gt;9,4</title>
<path fill="none" stroke="black" d="M613.17,-306C620.87,-306 630.03,-306 638.58,-306"/>
<polygon fill="black" stroke="black" points="638.59,-309.5 648.59,-306 638.59,-302.5 638.59,-309.5"/>
<text text-anchor="middle" x="635.38" y="-309.8" font-family="Times,serif" font-size="14.00">49</text>
</g>
<!-- 8,2 -->
<g id="node5" class="node">
<title>8,2</title>
<ellipse fill="none" stroke="black" cx="595" cy="-162" rx="18" ry="18"/>
</g>
<!-- 8,3&#45;&gt;8,2 -->
<g id="edge5" class="edge">
<title>8,3-&gt;8,2</title>
<path fill="none" stroke="black" d="M595,-215.83C595,-208.13 595,-198.97 595,-190.42"/>
<polygon fill="black" stroke="black" points="598.5,-190.41 595,-180.41 591.5,-190.41 598.5,-190.41"/>
<text text-anchor="middle" x="590" y="-191.92" font-family="Times,serif" font-size="14.00">4</text>
</g>
<!-- 9,3 -->
<g id="node6" class="node">
<title>9,3</title>
<ellipse fill="none" stroke="black" cx="667" cy="-234" rx="18" ry="18"/>
</g>
<!-- 8,3&#45;&gt;9,3 -->
<g id="edge6" class="edge">
<title>8,3-&gt;9,3</title>
<path fill="none" stroke="black" d="M613.17,-234C620.87,-234 630.03,-234 638.58,-234"/>
<polygon fill="black" stroke="black" points="638.59,-237.5 648.59,-234 638.59,-230.5 638.59,-237.5"/>
<text text-anchor="middle" x="620.88" y="-237.8" font-family="Times,serif" font-size="14.00">5</text>
</g>
<!-- 9,2 -->
<g id="node7" class="node">
<title>9,2</title>
<ellipse fill="none" stroke="black" cx="667" cy="-162" rx="18" ry="18"/>
</g>
<!-- 9,3&#45;&gt;9,2 -->
<g id="edge7" class="edge">
<title>9,3-&gt;9,2</title>
<path fill="none" stroke="black" d="M667,-215.83C667,-208.13 667,-198.97 667,-190.42"/>
<polygon fill="black" stroke="black" points="670.5,-190.41 667,-180.41 663.5,-190.41 670.5,-190.41"/>
<text text-anchor="middle" x="662" y="-191.92" font-family="Times,serif" font-size="14.00">6</text>
</g>
<!-- 9,1 -->
<g id="node8" class="node">
<title>9,1</title>
<ellipse fill="none" stroke="black" cx="667" cy="-90" rx="18" ry="18"/>
</g>
<!-- 9,2&#45;&gt;9,1 -->
<g id="edge8" class="edge">
<title>9,2-&gt;9,1</title>
<path fill="none" stroke="black" d="M667,-143.83C667,-136.13 667,-126.97 667,-118.42"/>
<polygon fill="black" stroke="black" points="670.5,-118.41 667,-108.41 663.5,-118.41 670.5,-118.41"/>
<text text-anchor="middle" x="662" y="-119.92" font-family="Times,serif" font-size="14.00">7</text>
</g>
<!-- 9,0 -->
<g id="node9" class="node">
<title>9,0</title>
<ellipse fill="none" stroke="black" cx="667" cy="-18" rx="18" ry="18"/>
</g>
<!-- 9,1&#45;&gt;9,0 -->
<g id="edge9" class="edge">
<title>9,1-&gt;9,0</title>
<path fill="none" stroke="black" d="M667,-71.83C667,-64.13 667,-54.97 667,-46.42"/>
<polygon fill="black" stroke="black" points="670.5,-46.41 667,-36.41 663.5,-46.41 670.5,-46.41"/>
<text text-anchor="middle" x="662" y="-47.92" font-family="Times,serif" font-size="14.00">8</text>
</g>
<!-- 8,0 -->
<g id="node10" class="node">
<title>8,0</title>
<ellipse fill="none" stroke="black" cx="595" cy="-18" rx="18" ry="18"/>
</g>
<!-- 9,0&#45;&gt;8,0 -->
<g id="edge10" class="edge">
<title>9,0-&gt;8,0</title>
<path fill="none" stroke="black" d="M648.83,-18C641.13,-18 631.97,-18 623.42,-18"/>
<polygon fill="black" stroke="black" points="623.41,-14.5 613.41,-18 623.41,-21.5 623.41,-14.5"/>
<text text-anchor="middle" x="631.12" y="-21.8" font-family="Times,serif" font-size="14.00">9</text>
</g>
<!-- 8,1 -->
<g id="node11" class="node">
<title>8,1</title>
<ellipse fill="none" stroke="black" cx="595" cy="-90" rx="18" ry="18"/>
</g>
<!-- 8,0&#45;&gt;8,1 -->
<g id="edge11" class="edge">
<title>8,0-&gt;8,1</title>
<path fill="none" stroke="black" d="M595,-36.17C595,-43.87 595,-53.03 595,-61.58"/>
<polygon fill="black" stroke="black" points="591.5,-61.59 595,-71.59 598.5,-61.59 591.5,-61.59"/>
<text text-anchor="middle" x="585.5" y="-52.68" font-family="Times,serif" font-size="14.00">10</text>
</g>
<!-- 7,1 -->
<g id="node12" class="node">
<title>7,1</title>
<ellipse fill="none" stroke="black" cx="523" cy="-90" rx="18" ry="18"/>
</g>
<!-- 8,1&#45;&gt;7,1 -->
<g id="edge12" class="edge">
<title>8,1-&gt;7,1</title>
<path fill="none" stroke="black" d="M576.83,-90C569.13,-90 559.97,-90 551.42,-90"/>
<polygon fill="black" stroke="black" points="551.41,-86.5 541.41,-90 551.41,-93.5 551.41,-86.5"/>
<text text-anchor="middle" x="554.62" y="-93.8" font-family="Times,serif" font-size="14.00">11</text>
</g>
<!-- 7,0 -->
<g id="node13" class="node">
<title>7,0</title>
<ellipse fill="none" stroke="black" cx="523" cy="-18" rx="18" ry="18"/>
</g>
<!-- 7,1&#45;&gt;7,0 -->
<g id="edge13" class="edge">
<title>7,1-&gt;7,0</title>
<path fill="none" stroke="black" d="M523,-71.83C523,-64.13 523,-54.97 523,-46.42"/>
<polygon fill="black" stroke="black" points="526.5,-46.41 523,-36.41 519.5,-46.41 526.5,-46.41"/>
<text text-anchor="middle" x="513.5" y="-47.92" font-family="Times,serif" font-size="14.00">12</text>
</g>
<!-- 6,0 -->
<g id="node14" class="node">
<title>6,0</title>
<ellipse fill="none" stroke="black" cx="451" cy="-18" rx="18" ry="18"/>
</g>
<!-- 7,0&#45;&gt;6,0 -->
<g id="edge14" class="edge">
<title>7,0-&gt;6,0</title>
<path fill="none" stroke="black" d="M504.83,-18C497.13,-18 487.97,-18 479.42,-18"/>
<polygon fill="black" stroke="black" points="479.41,-14.5 469.41,-18 479.41,-21.5 479.41,-14.5"/>
<text text-anchor="middle" x="482.62" y="-21.8" font-family="Times,serif" font-size="14.00">13</text>
</g>
<!-- 5,0 -->
<g id="node15" class="node">
<title>5,0</title>
<ellipse fill="none" stroke="black" cx="379" cy="-18" rx="18" ry="18"/>
</g>
<!-- 6,0&#45;&gt;5,0 -->
<g id="edge15" class="edge">
<title>6,0-&gt;5,0</title>
<path fill="none" stroke="black" d="M432.83,-18C425.13,-18 415.97,-18 407.42,-18"/>
<polygon fill="black" stroke="black" points="407.41,-14.5 397.41,-18 407.41,-21.5 407.41,-14.5"/>
<text text-anchor="middle" x="410.62" y="-21.8" font-family="Times,serif" font-size="14.00">14</text>
</g>
<!-- 5,1 -->
<g id="node16" class="node">
<title>5,1</title>
<ellipse fill="none" stroke="black" cx="379" cy="-90" rx="18" ry="18"/>
</g>
<!-- 5,0&#45;&gt;5,1 -->
<g id="edge16" class="edge">
<title>5,0-&gt;5,1</title>
<path fill="none" stroke="black" d="M379,-36.17C379,-43.87 379,-53.03 379,-61.58"/>
<polygon fill="black" stroke="black" points="375.5,-61.59 379,-71.59 382.5,-61.59 375.5,-61.59"/>
<text text-anchor="middle" x="369.5" y="-52.68" font-family="Times,serif" font-size="14.00">15</text>
</g>
<!-- 4,0 -->
<g id="node39" class="node">
<title>4,0</title>
<ellipse fill="none" stroke="black" cx="307" cy="-18" rx="18" ry="18"/>
</g>
<!-- 5,0&#45;&gt;4,0 -->
<g id="edge17" class="edge">
<title>5,0-&gt;4,0</title>
<path fill="none" stroke="black" d="M360.83,-18C353.13,-18 343.97,-18 335.42,-18"/>
<polygon fill="black" stroke="black" points="335.41,-14.5 325.41,-18 335.41,-21.5 335.41,-14.5"/>
<text text-anchor="middle" x="338.62" y="-21.8" font-family="Times,serif" font-size="14.00">38</text>
</g>
<!-- 6,1 -->
<g id="node17" class="node">
<title>6,1</title>
<ellipse fill="none" stroke="black" cx="451" cy="-90" rx="18" ry="18"/>
</g>
<!-- 5,1&#45;&gt;6,1 -->
<g id="edge18" class="edge">
<title>5,1-&gt;6,1</title>
<path fill="none" stroke="black" d="M397.17,-90C404.87,-90 414.03,-90 422.58,-90"/>
<polygon fill="black" stroke="black" points="422.59,-93.5 432.59,-90 422.59,-86.5 422.59,-93.5"/>
<text text-anchor="middle" x="419.38" y="-93.8" font-family="Times,serif" font-size="14.00">16</text>
</g>
<!-- 6,2 -->
<g id="node18" class="node">
<title>6,2</title>
<ellipse fill="none" stroke="black" cx="451" cy="-162" rx="18" ry="18"/>
</g>
<!-- 6,1&#45;&gt;6,2 -->
<g id="edge19" class="edge">
<title>6,1-&gt;6,2</title>
<path fill="none" stroke="black" d="M451,-108.17C451,-115.87 451,-125.03 451,-133.58"/>
<polygon fill="black" stroke="black" points="447.5,-133.59 451,-143.59 454.5,-133.59 447.5,-133.59"/>
<text text-anchor="middle" x="441.5" y="-124.68" font-family="Times,serif" font-size="14.00">17</text>
</g>
<!-- 7,2 -->
<g id="node19" class="node">
<title>7,2</title>
<ellipse fill="none" stroke="black" cx="523" cy="-162" rx="18" ry="18"/>
</g>
<!-- 6,2&#45;&gt;7,2 -->
<g id="edge20" class="edge">
<title>6,2-&gt;7,2</title>
<path fill="none" stroke="black" d="M469.17,-162C476.87,-162 486.03,-162 494.58,-162"/>
<polygon fill="black" stroke="black" points="494.59,-165.5 504.59,-162 494.59,-158.5 494.59,-165.5"/>
<text text-anchor="middle" x="491.38" y="-165.8" font-family="Times,serif" font-size="14.00">18</text>
</g>
<!-- 7,3 -->
<g id="node20" class="node">
<title>7,3</title>
<ellipse fill="none" stroke="black" cx="523" cy="-234" rx="18" ry="18"/>
</g>
<!-- 7,2&#45;&gt;7,3 -->
<g id="edge21" class="edge">
<title>7,2-&gt;7,3</title>
<path fill="none" stroke="black" d="M523,-180.17C523,-187.87 523,-197.03 523,-205.58"/>
<polygon fill="black" stroke="black" points="519.5,-205.59 523,-215.59 526.5,-205.59 519.5,-205.59"/>
<text text-anchor="middle" x="513.5" y="-196.68" font-family="Times,serif" font-size="14.00">19</text>
</g>
<!-- 6,3 -->
<g id="node21" class="node">
<title>6,3</title>
<ellipse fill="none" stroke="black" cx="451" cy="-234" rx="18" ry="18"/>
</g>
<!-- 7,3&#45;&gt;6,3 -->
<g id="edge22" class="edge">
<title>7,3-&gt;6,3</title>
<path fill="none" stroke="black" d="M504.83,-234C497.13,-234 487.97,-234 479.42,-234"/>
<polygon fill="black" stroke="black" points="479.41,-230.5 469.41,-234 479.41,-237.5 479.41,-230.5"/>
<text text-anchor="middle" x="482.62" y="-237.8" font-family="Times,serif" font-size="14.00">20</text>
</g>
<!-- 5,3 -->
<g id="node22" class="node">
<title>5,3</title>
<ellipse fill="none" stroke="black" cx="379" cy="-234" rx="18" ry="18"/>
</g>
<!-- 6,3&#45;&gt;5,3 -->
<g id="edge23" class="edge">
<title>6,3-&gt;5,3</title>
<path fill="none" stroke="black" d="M432.83,-234C425.13,-234 415.97,-234 407.42,-234"/>
<polygon fill="black" stroke="black" points="407.41,-230.5 397.41,-234 407.41,-237.5 407.41,-230.5"/>
<text text-anchor="middle" x="410.62" y="-237.8" font-family="Times,serif" font-size="14.00">21</text>
</g>
<!-- 5,4 -->
<g id="node23" class="node">
<title>5,4</title>
<ellipse fill="none" stroke="black" cx="379" cy="-306" rx="18" ry="18"/>
</g>
<!-- 5,3&#45;&gt;5,4 -->
<g id="edge24" class="edge">
<title>5,3-&gt;5,4</title>
<path fill="none" stroke="black" d="M379,-252.17C379,-259.87 379,-269.03 379,-277.58"/>
<polygon fill="black" stroke="black" points="375.5,-277.59 379,-287.59 382.5,-277.59 375.5,-277.59"/>
<text text-anchor="middle" x="369.5" y="-268.68" font-family="Times,serif" font-size="14.00">22</text>
</g>
<!-- 4,4 -->
<g id="node24" class="node">
<title>4,4</title>
<ellipse fill="none" stroke="black" cx="307" cy="-306" rx="18" ry="18"/>
</g>
<!-- 5,4&#45;&gt;4,4 -->
<g id="edge25" class="edge">
<title>5,4-&gt;4,4</title>
<path fill="none" stroke="black" d="M360.83,-306C353.13,-306 343.97,-306 335.42,-306"/>
<polygon fill="black" stroke="black" points="335.41,-302.5 325.41,-306 335.41,-309.5 335.41,-302.5"/>
<text text-anchor="middle" x="338.62" y="-309.8" font-family="Times,serif" font-size="14.00">23</text>
</g>
<!-- 3,4 -->
<g id="node25" class="node">
<title>3,4</title>
<ellipse fill="none" stroke="black" cx="235" cy="-306" rx="18" ry="18"/>
</g>
<!-- 4,4&#45;&gt;3,4 -->
<g id="edge26" class="edge">
<title>4,4-&gt;3,4</title>
<path fill="none" stroke="black" d="M288.83,-306C281.13,-306 271.97,-306 263.42,-306"/>
<polygon fill="black" stroke="black" points="263.41,-302.5 253.41,-306 263.41,-309.5 263.41,-302.5"/>
<text text-anchor="middle" x="266.62" y="-309.8" font-family="Times,serif" font-size="14.00">24</text>
</g>
<!-- 2,4 -->
<g id="node26" class="node">
<title>2,4</title>
<ellipse fill="none" stroke="black" cx="163" cy="-306" rx="18" ry="18"/>
</g>
<!-- 3,4&#45;&gt;2,4 -->
<g id="edge27" class="edge">
<title>3,4-&gt;2,4</title>
<path fill="none" stroke="black" d="M216.83,-306C209.13,-306 199.97,-306 191.42,-306"/>
<polygon fill="black" stroke="black" points="191.41,-302.5 181.41,-306 191.41,-309.5 191.41,-302.5"/>
<text text-anchor="middle" x="194.62" y="-309.8" font-family="Times,serif" font-size="14.00">25</text>
</g>
<!-- 2,3 -->
<g id="node27" class="node">
<title>2,3</title>
<ellipse fill="none" stroke="black" cx="163" cy="-234" rx="18" ry="18"/>
</g>
<!-- 2,4&#45;&gt;2,3 -->
<g id="edge28" class="edge">
<title>2,4-&gt;2,3</title>
<path fill="none" stroke="black" d="M163,-287.83C163,-280.13 163,-270.97 163,-262.42"/>
<polygon fill="black" stroke="black" points="166.5,-262.41 163,-252.41 159.5,-262.41 166.5,-262.41"/>
<text text-anchor="middle" x="153.5" y="-263.92" font-family="Times,serif" font-size="14.00">26</text>
</g>
<!-- 1,4 -->
<g id="node35" class="node">
<title>1,4</title>
<ellipse fill="none" stroke="black" cx="91" cy="-306" rx="18" ry="18"/>
</g>
<!-- 2,4&#45;&gt;1,4 -->
<g id="edge29" class="edge">
<title>2,4-&gt;1,4</title>
<path fill="none" stroke="black" d="M144.83,-306C137.13,-306 127.97,-306 119.42,-306"/>
<polygon fill="black" stroke="black" points="119.41,-302.5 109.41,-306 119.41,-309.5 119.41,-302.5"/>
<text text-anchor="middle" x="122.62" y="-309.8" font-family="Times,serif" font-size="14.00">34</text>
</g>
<!-- 1,3 -->
<g id="node28" class="node">
<title>1,3</title>
<ellipse fill="none" stroke="black" cx="91" cy="-234" rx="18" ry="18"/>
</g>
<!-- 2,3&#45;&gt;1,3 -->
<g id="edge30" class="edge">
<title>2,3-&gt;1,3</title>
<path fill="none" stroke="black" d="M144.83,-234C137.13,-234 127.97,-234 119.42,-234"/>
<polygon fill="black" stroke="black" points="119.41,-230.5 109.41,-234 119.41,-237.5 119.41,-230.5"/>
<text text-anchor="middle" x="122.62" y="-237.8" font-family="Times,serif" font-size="14.00">27</text>
</g>
<!-- 1,2 -->
<g id="node29" class="node">
<title>1,2</title>
<ellipse fill="none" stroke="black" cx="91" cy="-162" rx="18" ry="18"/>
</g>
<!-- 1,3&#45;&gt;1,2 -->
<g id="edge31" class="edge">
<title>1,3-&gt;1,2</title>
<path fill="none" stroke="black" d="M91,-215.83C91,-208.13 91,-198.97 91,-190.42"/>
<polygon fill="black" stroke="black" points="94.5,-190.41 91,-180.41 87.5,-190.41 94.5,-190.41"/>
<text text-anchor="middle" x="81.5" y="-191.92" font-family="Times,serif" font-size="14.00">28</text>
</g>
<!-- 2,2 -->
<g id="node30" class="node">
<title>2,2</title>
<ellipse fill="none" stroke="black" cx="163" cy="-162" rx="18" ry="18"/>
</g>
<!-- 1,2&#45;&gt;2,2 -->
<g id="edge32" class="edge">
<title>1,2-&gt;2,2</title>
<path fill="none" stroke="black" d="M109.17,-162C116.87,-162 126.03,-162 134.58,-162"/>
<polygon fill="black" stroke="black" points="134.59,-165.5 144.59,-162 134.59,-158.5 134.59,-165.5"/>
<text text-anchor="middle" x="131.38" y="-165.8" font-family="Times,serif" font-size="14.00">29</text>
</g>
<!-- 2,1 -->
<g id="node31" class="node">
<title>2,1</title>
<ellipse fill="none" stroke="black" cx="163" cy="-90" rx="18" ry="18"/>
</g>
<!-- 2,2&#45;&gt;2,1 -->
<g id="edge33" class="edge">
<title>2,2-&gt;2,1</title>
<path fill="none" stroke="black" d="M163,-143.83C163,-136.13 163,-126.97 163,-118.42"/>
<polygon fill="black" stroke="black" points="166.5,-118.41 163,-108.41 159.5,-118.41 166.5,-118.41"/>
<text text-anchor="middle" x="153.5" y="-119.92" font-family="Times,serif" font-size="14.00">30</text>
</g>
<!-- 1,1 -->
<g id="node32" class="node">
<title>1,1</title>
<ellipse fill="none" stroke="black" cx="91" cy="-90" rx="18" ry="18"/>
</g>
<!-- 2,1&#45;&gt;1,1 -->
<g id="edge34" class="edge">
<title>2,1-&gt;1,1</title>
<path fill="none" stroke="black" d="M144.83,-90C137.13,-90 127.97,-90 119.42,-90"/>
<polygon fill="black" stroke="black" points="119.41,-86.5 109.41,-90 119.41,-93.5 119.41,-86.5"/>
<text text-anchor="middle" x="122.62" y="-93.8" font-family="Times,serif" font-size="14.00">31</text>
</g>
<!-- 0,1 -->
<g id="node33" class="node">
<title>0,1</title>
<ellipse fill="none" stroke="black" cx="19" cy="-90" rx="18" ry="18"/>
</g>
<!-- 1,1&#45;&gt;0,1 -->
<g id="edge35" class="edge">
<title>1,1-&gt;0,1</title>
<path fill="none" stroke="black" d="M72.83,-90C65.13,-90 55.97,-90 47.42,-90"/>
<polygon fill="black" stroke="black" points="47.41,-86.5 37.41,-90 47.41,-93.5 47.41,-86.5"/>
<text text-anchor="middle" x="50.62" y="-93.8" font-family="Times,serif" font-size="14.00">32</text>
</g>
<!-- 0,0 -->
<g id="node34" class="node">
<title>0,0</title>
<polygon fill="none" stroke="black" points="37,-36 1,-36 1,0 37,0 37,-36"/>
<text text-anchor="middle" x="19" y="-14.3" font-family="Times,serif" font-size="14.00">E</text>
</g>
<!-- 0,1&#45;&gt;0,0 -->
<g id="edge36" class="edge">
<title>0,1-&gt;0,0</title>
<path fill="none" stroke="black" d="M19,-71.83C19,-64.13 19,-54.97 19,-46.42"/>
<polygon fill="black" stroke="black" points="22.5,-46.41 19,-36.41 15.5,-46.41 22.5,-46.41"/>
<text text-anchor="middle" x="9.5" y="-47.92" font-family="Times,serif" font-size="14.00">33</text>
</g>
<!-- 0,4 -->
<g id="node36" class="node">
<title>0,4</title>
<ellipse fill="none" stroke="black" cx="19" cy="-306" rx="18" ry="18"/>
</g>
<!-- 1,4&#45;&gt;0,4 -->
<g id="edge37" class="edge">
<title>1,4-&gt;0,4</title>
<path fill="none" stroke="black" d="M72.83,-306C65.13,-306 55.97,-306 47.42,-306"/>
<polygon fill="black" stroke="black" points="47.41,-302.5 37.41,-306 47.41,-309.5 47.41,-302.5"/>
<text text-anchor="middle" x="50.62" y="-309.8" font-family="Times,serif" font-size="14.00">35</text>
</g>
<!-- 0,3 -->
<g id="node37" class="node">
<title>0,3</title>
<ellipse fill="none" stroke="black" cx="19" cy="-234" rx="18" ry="18"/>
</g>
<!-- 0,4&#45;&gt;0,3 -->
<g id="edge38" class="edge">
<title>0,4-&gt;0,3</title>
<path fill="none" stroke="black" d="M19,-287.83C19,-280.13 19,-270.97 19,-262.42"/>
<polygon fill="black" stroke="black" points="22.5,-262.41 19,-252.41 15.5,-262.41 22.5,-262.41"/>
<text text-anchor="middle" x="9.5" y="-263.92" font-family="Times,serif" font-size="14.00">36</text>
</g>
<!-- 0,2 -->
<g id="node38" class="node">
<title>0,2</title>
<ellipse fill="none" stroke="black" cx="19" cy="-162" rx="18" ry="18"/>
</g>
<!-- 0,3&#45;&gt;0,2 -->
<g id="edge39" class="edge">
<title>0,3-&gt;0,2</title>
<path fill="none" stroke="black" d="M19,-215.83C19,-208.13 19,-198.97 19,-190.42"/>
<polygon fill="black" stroke="black" points="22.5,-190.41 19,-180.41 15.5,-190.41 22.5,-190.41"/>
<text text-anchor="middle" x="9.5" y="-191.92" font-family="Times,serif" font-size="14.00">37</text>
</g>
<!-- 3,0 -->
<g id="node40" class="node">
<title>3,0</title>
<ellipse fill="none" stroke="black" cx="235" cy="-18" rx="18" ry="18"/>
</g>
<!-- 4,0&#45;&gt;3,0 -->
<g id="edge40" class="edge">
<title>4,0-&gt;3,0</title>
<path fill="none" stroke="black" d="M288.83,-18C281.13,-18 271.97,-18 263.42,-18"/>
<polygon fill="black" stroke="black" points="263.41,-14.5 253.41,-18 263.41,-21.5 263.41,-14.5"/>
<text text-anchor="middle" x="266.62" y="-21.8" font-family="Times,serif" font-size="14.00">39</text>
</g>
<!-- 3,1 -->
<g id="node41" class="node">
<title>3,1</title>
<ellipse fill="none" stroke="black" cx="235" cy="-90" rx="18" ry="18"/>
</g>
<!-- 3,0&#45;&gt;3,1 -->
<g id="edge41" class="edge">
<title>3,0-&gt;3,1</title>
<path fill="none" stroke="black" d="M235,-36.17C235,-43.87 235,-53.03 235,-61.58"/>
<polygon fill="black" stroke="black" points="231.5,-61.59 235,-71.59 238.5,-61.59 231.5,-61.59"/>
<text text-anchor="middle" x="225.5" y="-52.68" font-family="Times,serif" font-size="14.00">40</text>
</g>
<!-- 2,0 -->
<g id="node48" class="node">
<title>2,0</title>
<ellipse fill="none" stroke="black" cx="163" cy="-18" rx="18" ry="18"/>
</g>
<!-- 3,0&#45;&gt;2,0 -->
<g id="edge42" class="edge">
<title>3,0-&gt;2,0</title>
<path fill="none" stroke="black" d="M216.83,-18C209.13,-18 199.97,-18 191.42,-18"/>
<polygon fill="black" stroke="black" points="191.41,-14.5 181.41,-18 191.41,-21.5 191.41,-14.5"/>
<text text-anchor="middle" x="194.62" y="-21.8" font-family="Times,serif" font-size="14.00">47</text>
</g>
<!-- 3,2 -->
<g id="node42" class="node">
<title>3,2</title>
<ellipse fill="none" stroke="black" cx="235" cy="-162" rx="18" ry="18"/>
</g>
<!-- 3,1&#45;&gt;3,2 -->
<g id="edge43" class="edge">
<title>3,1-&gt;3,2</title>
<path fill="none" stroke="black" d="M235,-108.17C235,-115.87 235,-125.03 235,-133.58"/>
<polygon fill="black" stroke="black" points="231.5,-133.59 235,-143.59 238.5,-133.59 231.5,-133.59"/>
<text text-anchor="middle" x="225.5" y="-124.68" font-family="Times,serif" font-size="14.00">41</text>
</g>
<!-- 3,3 -->
<g id="node43" class="node">
<title>3,3</title>
<ellipse fill="none" stroke="black" cx="235" cy="-234" rx="18" ry="18"/>
</g>
<!-- 3,2&#45;&gt;3,3 -->
<g id="edge44" class="edge">
<title>3,2-&gt;3,3</title>
<path fill="none" stroke="black" d="M235,-180.17C235,-187.87 235,-197.03 235,-205.58"/>
<polygon fill="black" stroke="black" points="231.5,-205.59 235,-215.59 238.5,-205.59 231.5,-205.59"/>
<text text-anchor="middle" x="225.5" y="-196.68" font-family="Times,serif" font-size="14.00">42</text>
</g>
<!-- 4,3 -->
<g id="node44" class="node">
<title>4,3</title>
<ellipse fill="none" stroke="black" cx="307" cy="-234" rx="18" ry="18"/>
</g>
<!-- 3,3&#45;&gt;4,3 -->
<g id="edge45" class="edge">
<title>3,3-&gt;4,3</title>
<path fill="none" stroke="black" d="M253.17,-234C260.87,-234 270.03,-234 278.58,-234"/>
<polygon fill="black" stroke="black" points="278.59,-237.5 288.59,-234 278.59,-230.5 278.59,-237.5"/>
<text text-anchor="middle" x="275.38" y="-237.8" font-family="Times,serif" font-size="14.00">43</text>
</g>
<!-- 4,2 -->
<g id="node45" class="node">
<title>4,2</title>
<ellipse fill="none" stroke="black" cx="307" cy="-162" rx="18" ry="18"/>
</g>
<!-- 4,3&#45;&gt;4,2 -->
<g id="edge46" class="edge">
<title>4,3-&gt;4,2</title>
<path fill="none" stroke="black" d="M307,-215.83C307,-208.13 307,-198.97 307,-190.42"/>
<polygon fill="black" stroke="black" points="310.5,-190.41 307,-180.41 303.5,-190.41 310.5,-190.41"/>
<text text-anchor="middle" x="297.5" y="-191.92" font-family="Times,serif" font-size="14.00">44</text>
</g>
<!-- 4,1 -->
<g id="node46" class="node">
<title>4,1</title>
<ellipse fill="none" stroke="black" cx="307" cy="-90" rx="18" ry="18"/>
</g>
<!-- 4,2&#45;&gt;4,1 -->
<g id="edge48" class="edge">
<title>4,2-&gt;4,1</title>
<path fill="none" stroke="black" d="M307,-143.83C307,-136.13 307,-126.97 307,-118.42"/>
<polygon fill="black" stroke="black" points="310.5,-118.41 307,-108.41 303.5,-118.41 310.5,-118.41"/>
<text text-anchor="middle" x="297.5" y="-119.92" font-family="Times,serif" font-size="14.00">45</text>
</g>
<!-- 5,2 -->
<g id="node47" class="node">
<title>5,2</title>
<ellipse fill="none" stroke="black" cx="379" cy="-162" rx="18" ry="18"/>
</g>
<!-- 4,2&#45;&gt;5,2 -->
<g id="edge47" class="edge">
<title>4,2-&gt;5,2</title>
<path fill="none" stroke="black" d="M325.17,-162C332.87,-162 342.03,-162 350.58,-162"/>
<polygon fill="black" stroke="black" points="350.59,-165.5 360.59,-162 350.59,-158.5 350.59,-165.5"/>
<text text-anchor="middle" x="347.38" y="-165.8" font-family="Times,serif" font-size="14.00">46</text>
</g>
<!-- 1,0 -->
<g id="node49" class="node">
<title>1,0</title>
<ellipse fill="none" stroke="black" cx="91" cy="-18" rx="18" ry="18"/>
</g>
<!-- 2,0&#45;&gt;1,0 -->
<g id="edge49" class="edge">
<title>2,0-&gt;1,0</title>
<path fill="none" stroke="black" d="M144.83,-18C137.13,-18 127.97,-18 119.42,-18"/>
<polygon fill="black" stroke="black" points="119.41,-14.5 109.41,-18 119.41,-21.5 119.41,-14.5"/>
<text text-anchor="middle" x="122.62" y="-21.8" font-family="Times,serif" font-size="14.00">48</text>
</g>
</g>
</svg>