<svg xmlns="http://www.w3.org/2000/svg" xmlns:xlink="http://www.w3.org/1999/xlink" width="164pt" height="304pt" viewBox="0.00 0.00 164.48 304.07">
<g id="graph0" class="graph" transform="scale(1 1) rotate(0) translate(4 300.07)">
<title>%3</title>
<polygon fill="white" stroke="transparent" points="-4,4 -4,-300.07 160.48,-300.07 160.48,4 -4,4"/>
<!-- 1 -->
<g id="node1" class="node">
<title>1</title>
<ellipse fill="none" stroke="black" cx="18" cy="-18" rx="18" ry="18"/>
<text text-anchor="middle" x="18" y="-14.3" font-family="Times,serif" font-size="14.00">1</text>
</g>
<!-- 2 -->
<g id="node2" class="node">
<title>2</title>
<ellipse fill="none" stroke="black" cx="54.7" cy="-80.26" rx="18" ry="18"/>
<text text-anchor="middle" x="54.7" y="-76.56" font-family="Times,serif" font-size="14.00">2</text>
</g>
<!-- 1&#45;&#45;2 -->
<g id="edge1" class="edge">
<title>1--2</title>
<path fill="none" stroke="black" d="M27.26,-33.71C32.78,-43.08 39.77,-54.93 45.31,-64.34"/>
</g>
<!-- 3 -->
<g id="node3" class="node">
<title>3</title>
<ellipse fill="none" stroke="black" cx="73.78" cy="-150.01" rx="18" ry="18"/>
<text text-anchor="middle" x="73.78" y="-146.31" font-family="Times,serif" font-size="14.00">3</text>
</g>
<!-- 2&#45;&#45;3 -->
<g id="edge2" class="edge">
<title>2--3</title>
<path fill="none" stroke="black" d="M59.51,-97.86C62.38,-108.35 66.02,-121.64 68.9,-132.17"/>
</g>
<!-- 4 -->
<g id="node4" class="node">
<title>4</title>
<ellipse fill="none" stroke="black" cx="98.27" cy="-218" rx="18" ry="18"/>
<text text-anchor="middle" x="98.27" y="-214.3" font-family="Times,serif" font-size="14.00">4</text>
</g>
<!-- 3&#45;&#45;4 -->
<g id="edge3" class="edge">
<title>3--4</title>
<path fill="none" stroke="black" d="M79.96,-167.16C83.64,-177.39 88.31,-190.34 92.01,-200.61"/>
</g>
<!-- 5 -->
<g id="node5" class="node">
<title>5</title>
<ellipse fill="none" stroke="black" cx="138.48" cy="-278.07" rx="18" ry="18"/>
<text text-anchor="middle" x="138.48" y="-274.37" font-family="Times,serif" font-size="14.00">5</text>
</g>
<!-- 4&#45;&#45;5 -->
<g id="edge4" class="edge">
<title>4--5</title>
<path fill="none" stroke="black" d="M108.41,-233.16C114.46,-242.2 122.12,-253.64 128.2,-262.71"/>
</g>
</g>
</svg>