<svg xmlns="http://www.w3.org/2000/svg" xmlns:xlink="http://www.w3.org/1999/xlink" width="185pt" height="216pt" viewBox="0.00 0.00 185.18 215.57">
<g id="graph0" class="graph" transform="scale(1 1) rotate(0) translate(4 211.57)">
<title>%3</title>
<polygon fill="white" stroke="transparent" points="-4,4 -4,-211.57 181.18,-211.57 181.18,4 -4,4"/>
<!-- a -->
<g id="node1" class="node">
<title>a</title>
<ellipse fill="none" stroke="black" cx="99.01" cy="-114.13" rx="18" ry="18"/>
<text text-anchor="middle" x="99.01" y="-110.43" font-family="Times,serif" font-size="14.00">a</text>
</g>
<!-- b -->
<g id="node2" class="node">
<title>b</title>
<ellipse fill="none" stroke="black" cx="19.35" cy="-68.14" rx="18" ry="18"/>
<text text-anchor="middle" x="19.35" y="-64.44" font-family="Times,serif" font-size="14.00">b</text>
</g>
<!-- a&#45;&#45;b -->
<g id="edge2" class="edge">
<title>a--b</title>
<path fill="none" stroke="black" d="M83.27,-105.04C69.31,-96.98 49.01,-85.26 35.05,-77.21"/>
</g>
<!-- d -->
<g id="node4" class="node">
<title>d</title>
<ellipse fill="none" stroke="black" cx="159.18" cy="-59.41" rx="18" ry="18"/>
<text text-anchor="middle" x="159.18" y="-55.71" font-family="Times,serif" font-size="14.00">d</text>
</g>
<!-- a&#45;&#45;d -->
<g id="edge3" class="edge">
<title>a--d</title>
<path fill="none" stroke="black" d="M112.37,-101.99C122.2,-93.04 135.53,-80.92 145.45,-71.9"/>
</g>
<!-- e -->
<g id="node5" class="node">
<title>e</title>
<ellipse fill="none" stroke="black" cx="92.51" cy="-189.57" rx="18" ry="18"/>
<text text-anchor="middle" x="92.51" y="-185.87" font-family="Times,serif" font-size="14.00">e</text>
</g>
<!-- a&#45;&#45;e -->
<g id="edge1" class="edge">
<title>a--e</title>
<path fill="none" stroke="black" d="M97.44,-132.39C96.41,-144.25 95.09,-159.65 94.07,-171.47"/>
</g>
<!-- c -->
<g id="node3" class="node">
<title>c</title>
<ellipse fill="none" stroke="black" cx="85.2" cy="-18" rx="18" ry="18"/>
<text text-anchor="middle" x="85.2" y="-14.3" font-family="Times,serif" font-size="14.00">c</text>
</g>
<!-- b&#45;&#45;c -->
<g id="edge4" class="edge">
<title>b--c</title>
<path fill="none" stroke="black" d="M33.96,-57.01C44.88,-48.7 59.73,-37.4 70.63,-29.1"/>
</g>
<!-- f -->
<g id="node6" class="node">
<title>f</title>
<ellipse fill="none" stroke="black" cx="18" cy="-148.41" rx="18" ry="18"/>
<text text-anchor="middle" x="18" y="-144.71" font-family="Times,serif" font-size="14.00">f</text>
</g>
<!-- b&#45;&#45;f -->
<g id="edge5" class="edge">
<title>b--f</title>
<path fill="none" stroke="black" d="M19.04,-86.35C18.82,-99.49 18.52,-117.15 18.3,-130.27"/>
</g>
<!-- c&#45;&#45;d -->
<g id="edge7" class="edge">
<title>c--d</title>
<path fill="none" stroke="black" d="M101.26,-26.99C113.75,-33.98 130.99,-43.63 143.42,-50.59"/>
</g>
<!-- g -->
<g id="node7" class="node">
<title>g</title>
<ellipse fill="none" stroke="black" cx="77.35" cy="-93.36" rx="18" ry="18"/>
<text text-anchor="middle" x="77.35" y="-89.66" font-family="Times,serif" font-size="14.00">g</text>
</g>
<!-- c&#45;&#45;g -->
<g id="edge6" class="edge">
<title>c--g</title>
<path fill="none" stroke="black" d="M83.3,-36.24C82.07,-48.09 80.47,-63.47 79.23,-75.29"/>
</g>
<!-- h -->
<g id="node8" class="node">
<title>h</title>
<ellipse fill="none" stroke="black" cx="157.62" cy="-139.01" rx="18" ry="18"/>
<text text-anchor="middle" x="157.62" y="-135.31" font-family="Times,serif" font-size="14.00">h</text>
</g>
<!-- d&#45;&#45;h -->
<g id="edge8" class="edge">
<title>d--h</title>
<path fill="none" stroke="black" d="M158.83,-77.48C158.57,-90.41 158.23,-107.76 157.98,-120.75"/>
</g>
<!-- e&#45;&#45;f -->
<g id="edge10" class="edge">
<title>e--f</title>
<path fill="none" stroke="black" d="M76.71,-180.84C64.06,-173.86 46.42,-164.11 33.78,-157.13"/>
</g>
<!-- e&#45;&#45;h -->
<g id="edge9" class="edge">
<title>e--h</title>
<path fill="none" stroke="black" d="M106.96,-178.35C117.75,-169.97 132.43,-158.57 143.21,-150.2"/>
</g>
<!-- f&#45;&#45;g -->
<g id="edge11" class="edge">
<title>f--g</title>
<path fill="none" stroke="black" d="M31.47,-135.92C41.18,-126.91 54.24,-114.8 63.94,-105.8"/>
</g>
<!-- g&#45;&#45;h -->
<g id="edge12" class="edge">
<title>g--h</title>
<path fill="none" stroke="black" d="M93.21,-102.38C107.28,-110.38 127.73,-122.01 141.79,-130.01"/>
</g>
</g>
</svg>