<svg xmlns="http://www.w3.org/2000/svg" xmlns:xlink="http://www.w3.org/1999/xlink" width="179pt" height="117pt" viewBox="0.00 0.00 178.56 116.89">
<g id="graph0" class="graph" transform="scale(1 1) rotate(0) translate(4 112.89)">
<title>%3</title>
<polygon fill="white" stroke="transparent" points="-4,4 -4,-112.89 174.56,-112.89 174.56,4 -4,4"/>
<!-- a -->
<g id="node1" class="node">
<title>a</title>
<ellipse fill="none" stroke="black" cx="18" cy="-32.01" rx="18" ry="18"/>
<text text-anchor="middle" x="18" y="-28.31" font-family="Times,serif" font-size="14.00">a</text>
</g>
<!-- b -->
<g id="node2" class="node">
<title>b</title>
<ellipse fill="none" stroke="black" cx="90.94" cy="-18" rx="18" ry="18"/>
<text text-anchor="middle" x="90.94" y="-14.3" font-family="Times,serif" font-size="14.00">b</text>
</g>
<!-- a&#45;&#45;b -->
<g id="edge1" class="edge">
<title>a--b</title>
<path fill="none" stroke="black" d="M36.03,-28.54C47.34,-26.37 61.85,-23.59 73.12,-21.42"/>
</g>
<!-- e -->
<g id="node5" class="node">
<title>e</title>
<ellipse fill="none" stroke="black" cx="77.89" cy="-76.57" rx="18" ry="18"/>
<text text-anchor="middle" x="77.89" y="-72.87" font-family="Times,serif" font-size="14.00">e</text>
</g>
<!-- a&#45;&#45;e -->
<g id="edge2" class="edge">
<title>a--e</title>
<path fill="none" stroke="black" d="M32.5,-42.8C41.78,-49.7 53.78,-58.63 63.11,-65.58"/>
</g>
<!-- c -->
<g id="node3" class="node">
<title>c</title>
<ellipse fill="none" stroke="black" cx="152.56" cy="-30.51" rx="18" ry="18"/>
<text text-anchor="middle" x="152.56" y="-26.81" font-family="Times,serif" font-size="14.00">c</text>
</g>
<!-- b&#45;&#45;c -->
<g id="edge5" class="edge">
<title>b--c</title>
<path fill="none" stroke="black" d="M108.76,-21.62C116.87,-23.26 126.44,-25.2 134.56,-26.85"/>
</g>
<!-- d -->
<g id="node4" class="node">
<title>d</title>
<ellipse fill="none" stroke="black" cx="139.39" cy="-90.89" rx="18" ry="18"/>
<text text-anchor="middle" x="139.39" y="-87.19" font-family="Times,serif" font-size="14.00">d</text>
</g>
<!-- b&#45;&#45;d -->
<g id="edge4" class="edge">
<title>b--d</title>
<path fill="none" stroke="black" d="M100.98,-33.1C109.29,-45.61 121.05,-63.3 129.37,-75.8"/>
</g>
<!-- b&#45;&#45;e -->
<g id="edge3" class="edge">
<title>b--e</title>
<path fill="none" stroke="black" d="M87.02,-35.57C85.4,-42.85 83.52,-51.29 81.89,-58.61"/>
</g>
<!-- c&#45;&#45;d -->
<g id="edge7" class="edge">
<title>c--d</title>
<path fill="none" stroke="black" d="M148.68,-48.3C146.98,-56.09 144.99,-65.21 143.29,-73.02"/>
</g>
<!-- c&#45;&#45;e -->
<g id="edge6" class="edge">
<title>c--e</title>
<path fill="none" stroke="black" d="M137.09,-40.05C124.27,-47.96 106.15,-59.14 93.34,-67.04"/>
</g>
<!-- d&#45;&#45;e -->
<g id="edge8" class="edge">
<title>d--e</title>
<path fill="none" stroke="black" d="M121.6,-86.75C113.37,-84.83 103.63,-82.56 95.43,-80.66"/>
</g>
</g>
</svg>