<svg xmlns="http://www.w3.org/2000/svg" xmlns:xlink="http://www.w3.org/1999/xlink" width="254pt" height="256pt" viewBox="0.00 0.00 254.46 256.32">
<g id="graph0" class="graph" transform="scale(1 1) rotate(0) translate(4 252.32)">
<title>%3</title>
<polygon fill="white" stroke="transparent" points="-4,4 -4,-252.32 250.46,-252.32 250.46,4 -4,4"/>
<!-- 0 -->
<g id="node1" class="node">
<title>0</title>
<ellipse fill="none" stroke="black" cx="69.58" cy="-173.78" rx="18" ry="18"/>
<text text-anchor="middle" x="69.58" y="-170.08" font-family="Times,serif" font-size="14.00">0</text>
</g>
<!-- 2 -->
<g id="node3" class="node">
<title>2</title>
<ellipse fill="none" stroke="black" cx="69.34" cy="-91.07" rx="18" ry="18"/>
<text text-anchor="middle" x="69.34" y="-87.37" font-family="Times,serif" font-size="14.00">2</text>
</g>
<!-- 0&#45;&#45;2 -->
<g id="edge2" class="edge">
<title>0--2</title>
<path fill="none" stroke="black" d="M69.53,-155.43C69.49,-141.63 69.43,-122.81 69.39,-109.09"/>
</g>
<!-- 4 -->
<g id="node5" class="node">
<title>4</title>
<ellipse fill="none" stroke="black" cx="18" cy="-230.32" rx="18" ry="18"/>
<text text-anchor="middle" x="18" y="-226.62" font-family="Times,serif" font-size="14.00">4</text>
</g>
<!-- 0&#45;&#45;4 -->
<g id="edge3" class="edge">
<title>0--4</title>
<path fill="none" stroke="black" d="M57.36,-187.18C49.14,-196.19 38.34,-208.02 30.14,-217.01"/>
</g>
<!-- 8 -->
<g id="node9" class="node">
<title>8</title>
<ellipse fill="none" stroke="black" cx="152.27" cy="-177.27" rx="18" ry="18"/>
<text text-anchor="middle" x="152.27" y="-173.57" font-family="Times,serif" font-size="14.00">8</text>
</g>
<!-- 0&#45;&#45;8 -->
<g id="edge1" class="edge">
<title>0--8</title>
<path fill="none" stroke="black" d="M87.93,-174.56C101.73,-175.14 120.54,-175.93 134.25,-176.51"/>
</g>
<!-- 1 -->
<g id="node2" class="node">
<title>1</title>
<ellipse fill="none" stroke="black" cx="131.46" cy="-42.16" rx="18" ry="18"/>
<text text-anchor="middle" x="131.46" y="-38.46" font-family="Times,serif" font-size="14.00">1</text>
</g>
<!-- 1&#45;&#45;2 -->
<g id="edge4" class="edge">
<title>1--2</title>
<path fill="none" stroke="black" d="M117.05,-53.51C107.02,-61.41 93.69,-71.9 83.67,-79.79"/>
</g>
<!-- 3 -->
<g id="node4" class="node">
<title>3</title>
<ellipse fill="none" stroke="black" cx="220.9" cy="-72.94" rx="18" ry="18"/>
<text text-anchor="middle" x="220.9" y="-69.24" font-family="Times,serif" font-size="14.00">3</text>
</g>
<!-- 1&#45;&#45;3 -->
<g id="edge5" class="edge">
<title>1--3</title>
<path fill="none" stroke="black" d="M148.71,-48.1C164.54,-53.55 187.89,-61.58 203.71,-67.02"/>
</g>
<!-- 5 -->
<g id="node6" class="node">
<title>5</title>
<ellipse fill="none" stroke="black" cx="59.86" cy="-18" rx="18" ry="18"/>
<text text-anchor="middle" x="59.86" y="-14.3" font-family="Times,serif" font-size="14.00">5</text>
</g>
<!-- 1&#45;&#45;5 -->
<g id="edge6" class="edge">
<title>1--5</title>
<path fill="none" stroke="black" d="M114.13,-36.31C102.87,-32.52 88.26,-27.58 77.03,-23.8"/>
</g>
<!-- 6 -->
<g id="node7" class="node">
<title>6</title>
<ellipse fill="none" stroke="black" cx="189.87" cy="-22.19" rx="18" ry="18"/>
<text text-anchor="middle" x="189.87" y="-18.49" font-family="Times,serif" font-size="14.00">6</text>
</g>
<!-- 1&#45;&#45;6 -->
<g id="edge7" class="edge">
<title>1--6</title>
<path fill="none" stroke="black" d="M148.67,-36.28C156.21,-33.7 165.03,-30.68 172.58,-28.1"/>
</g>
<!-- 9 -->
<g id="node10" class="node">
<title>9</title>
<ellipse fill="none" stroke="black" cx="143.95" cy="-98.7" rx="18" ry="18"/>
<text text-anchor="middle" x="143.95" y="-95" font-family="Times,serif" font-size="14.00">9</text>
</g>
<!-- 1&#45;&#45;9 -->
<g id="edge8" class="edge">
<title>1--9</title>
<path fill="none" stroke="black" d="M135.34,-59.74C136.83,-66.48 138.53,-74.18 140.03,-80.94"/>
</g>
<!-- 2&#45;&#45;5 -->
<g id="edge9" class="edge">
<title>2--5</title>
<path fill="none" stroke="black" d="M67,-73.01C65.53,-61.68 63.64,-47.14 62.17,-35.85"/>
</g>
<!-- 2&#45;&#45;9 -->
<g id="edge10" class="edge">
<title>2--9</title>
<path fill="none" stroke="black" d="M87.4,-92.92C99.04,-94.11 114.13,-95.65 125.8,-96.84"/>
</g>
<!-- 3&#45;&#45;6 -->
<g id="edge11" class="edge">
<title>3--6</title>
<path fill="none" stroke="black" d="M211.42,-57.44C207.57,-51.14 203.13,-43.88 199.29,-37.6"/>
</g>
<!-- 7 -->
<g id="node8" class="node">
<title>7</title>
<ellipse fill="none" stroke="black" cx="228.46" cy="-155.37" rx="18" ry="18"/>
<text text-anchor="middle" x="228.46" y="-151.67" font-family="Times,serif" font-size="14.00">7</text>
</g>
<!-- 3&#45;&#45;7 -->
<g id="edge12" class="edge">
<title>3--7</title>
<path fill="none" stroke="black" d="M222.58,-91.24C223.84,-104.99 225.56,-123.74 226.82,-137.41"/>
</g>
<!-- 6&#45;&#45;9 -->
<g id="edge13" class="edge">
<title>6--9</title>
<path fill="none" stroke="black" d="M180.58,-37.67C172.61,-50.95 161.19,-69.97 153.23,-83.24"/>
</g>
<!-- 7&#45;&#45;8 -->
<g id="edge14" class="edge">
<title>7--8</title>
<path fill="none" stroke="black" d="M210.79,-160.45C198.39,-164.01 181.9,-168.75 169.58,-172.29"/>
</g>
<!-- 8&#45;&#45;9 -->
<g id="edge15" class="edge">
<title>8--9</title>
<path fill="none" stroke="black" d="M150.34,-159.04C148.99,-146.35 147.21,-129.49 145.87,-116.82"/>
</g>
</g>
</svg>