<svg xmlns="http://www.w3.org/2000/svg" xmlns:xlink="http://www.w3.org/1999/xlink" width="142pt" height="178pt" viewBox="0.00 0.00 141.70 177.77">
<g id="graph0" class="graph" transform="scale(1 1) rotate(0) translate(4 173.77)">
<title>%3</title>
<polygon fill="white" stroke="transparent" points="-4,4 -4,-173.77 137.7,-173.77 137.7,4 -4,4"/>
<!-- 1 -->
<g id="node1" class="node">
<title>1</title>
<ellipse fill="none" stroke="black" cx="18" cy="-18" rx="18" ry="18"/>
<text text-anchor="middle" x="18" y="-14.3" font-family="Times,serif" font-size="14.00">1</text>
</g>
<!-- 2 -->
<g id="node2" class="node">
<title>2</title>
<ellipse fill="none" stroke="black" cx="72.91" cy="-68.34" rx="18" ry="18"/>
<text text-anchor="middle" x="72.91" y="-64.64" font-family="Times,serif" font-size="14.00">2</text>
</g>
<!-- 1&#45;&gt;2 -->
<g id="edge1" class="edge">
<title>1-&gt;2</title>
<path fill="none" stroke="black" d="M31.29,-30.18C37.4,-35.79 44.81,-42.58 51.67,-48.86"/>
<polygon fill="black" stroke="black" points="49.62,-51.74 59.36,-55.91 54.35,-46.58 49.62,-51.74"/>
</g>
<!-- 3 -->
<g id="node3" class="node">
<title>3</title>
<ellipse fill="none" stroke="black" cx="24.23" cy="-91.99" rx="18" ry="18"/>
<text text-anchor="middle" x="24.23" y="-88.29" font-family="Times,serif" font-size="14.00">3</text>
</g>
<!-- 1&#45;&gt;3 -->
<g id="edge2" class="edge">
<title>1-&gt;3</title>
<path fill="none" stroke="black" d="M19.54,-36.29C20.24,-44.62 21.09,-54.67 21.87,-63.93"/>
<polygon fill="black" stroke="black" points="18.38,-64.24 22.71,-73.91 25.36,-63.65 18.38,-64.24"/>
</g>
<!-- 5 -->
<g id="node5" class="node">
<title>5</title>
<ellipse fill="none" stroke="black" cx="115.7" cy="-111.04" rx="18" ry="18"/>
<text text-anchor="middle" x="115.7" y="-107.34" font-family="Times,serif" font-size="14.00">5</text>
</g>
<!-- 2&#45;&gt;5 -->
<g id="edge3" class="edge">
<title>2-&gt;5</title>
<path fill="none" stroke="black" d="M85.98,-81.38C88.96,-84.36 92.21,-87.6 95.41,-90.8"/>
<polygon fill="black" stroke="black" points="93.15,-93.49 102.71,-98.08 98.1,-88.54 93.15,-93.49"/>
</g>
<!-- 4 -->
<g id="node4" class="node">
<title>4</title>
<ellipse fill="none" stroke="black" cx="29.51" cy="-151.77" rx="18" ry="18"/>
<text text-anchor="middle" x="29.51" y="-148.07" font-family="Times,serif" font-size="14.00">4</text>
</g>
<!-- 3&#45;&gt;4 -->
<g id="edge4" class="edge">
<title>3-&gt;4</title>
<path fill="none" stroke="black" d="M25.81,-109.92C26.18,-114.1 26.58,-118.65 26.98,-123.17"/>
<polygon fill="black" stroke="black" points="23.52,-123.78 27.89,-133.43 30.5,-123.16 23.52,-123.78"/>
</g>
<!-- 3&#45;&gt;5 -->
<g id="edge5" class="edge">
<title>3-&gt;5</title>
<path fill="none" stroke="black" d="M41.87,-95.66C54.82,-98.36 72.67,-102.08 87.58,-105.19"/>
<polygon fill="black" stroke="black" points="87.3,-108.7 97.8,-107.32 88.73,-101.85 87.3,-108.7"/>
</g>
<!-- 4&#45;&gt;2 -->
<g id="edge6" class="edge">
<title>4-&gt;2</title>
<path fill="none" stroke="black" d="M37.87,-135.68C44.12,-123.68 52.77,-107.05 59.91,-93.32"/>
<polygon fill="black" stroke="black" points="63.05,-94.86 64.56,-84.37 56.84,-91.63 63.05,-94.86"/>
</g>
</g>
</svg>