<svg xmlns="http://www.w3.org/2000/svg" xmlns:xlink="http://www.w3.org/1999/xlink" width="188pt" height="260pt" viewBox="0.00 0.00 188.00 260.00">
<g id="graph0" class="graph" transform="scale(1 1) rotate(0) translate(4 256)">
<title>%3</title>
<polygon fill="white" stroke="transparent" points="-4,4 -4,-256 184,-256 184,4 -4,4"/>
<!-- a -->
<g id="node1" class="node">
<title>a</title>
<ellipse fill="none" stroke="black" cx="18" cy="-18" rx="18" ry="18"/>
<text text-anchor="middle" x="18" y="-14.3" font-family="Times,serif" font-size="14.00">a</text>
</g>
<!-- b -->
<g id="node2" class="node">
<title>b</title>
<ellipse fill="none" stroke="black" cx="126" cy="-18" rx="18" ry="18"/>
<text text-anchor="middle" x="126" y="-14.3" font-family="Times,serif" font-size="14.00">b</text>
</g>
<!-- a&#45;&#45;b -->
<g id="edge3" class="edge">
<title>a--b</title>
<path fill="none" stroke="black" d="M36.32,-18C56.3,-18 88.08,-18 107.95,-18"/>
</g>
<!-- d -->
<g id="node4" class="node">
<title>d</title>
<ellipse fill="none" stroke="black" cx="162" cy="-90" rx="18" ry="18"/>
<text text-anchor="middle" x="162" y="-86.3" font-family="Times,serif" font-size="14.00">d</text>
</g>
<!-- a&#45;&#45;d -->
<g id="edge2" class="edge">
<title>a--d</title>
<path fill="none" stroke="black" d="M34.24,-26.12C61.9,-39.95 117.83,-67.92 145.6,-81.8"/>
</g>
<!-- e -->
<g id="node5" class="node">
<title>e</title>
<ellipse fill="none" stroke="black" cx="18" cy="-162" rx="18" ry="18"/>
<text text-anchor="middle" x="18" y="-158.3" font-family="Times,serif" font-size="14.00">e</text>
</g>
<!-- a&#45;&#45;e -->
<g id="edge1" class="edge">
<title>a--e</title>
<path fill="none" stroke="black" d="M18,-36.24C18,-63.94 18,-116.3 18,-143.91"/>
</g>
<!-- c -->
<g id="node3" class="node">
<title>c</title>
<ellipse fill="none" stroke="black" cx="54" cy="-90" rx="18" ry="18"/>
<text text-anchor="middle" x="54" y="-86.3" font-family="Times,serif" font-size="14.00">c</text>
</g>
<!-- b&#45;&#45;c -->
<g id="edge4" class="edge">
<title>b--c</title>
<path fill="none" stroke="black" d="M113.13,-30.87C100.02,-43.98 79.83,-64.17 66.76,-77.24"/>
</g>
<!-- f -->
<g id="node6" class="node">
<title>f</title>
<ellipse fill="none" stroke="black" cx="126" cy="-162" rx="18" ry="18"/>
<text text-anchor="middle" x="126" y="-158.3" font-family="Times,serif" font-size="14.00">f</text>
</g>
<!-- b&#45;&#45;f -->
<g id="edge5" class="edge">
<title>b--f</title>
<path fill="none" stroke="black" d="M126,-36.24C126,-63.94 126,-116.3 126,-143.91"/>
</g>
<!-- c&#45;&#45;d -->
<g id="edge7" class="edge">
<title>c--d</title>
<path fill="none" stroke="black" d="M72.32,-90C92.3,-90 124.08,-90 143.95,-90"/>
</g>
<!-- g -->
<g id="node7" class="node">
<title>g</title>
<ellipse fill="none" stroke="black" cx="54" cy="-234" rx="18" ry="18"/>
<text text-anchor="middle" x="54" y="-230.3" font-family="Times,serif" font-size="14.00">g</text>
</g>
<!-- c&#45;&#45;g -->
<g id="edge6" class="edge">
<title>c--g</title>
<path fill="none" stroke="black" d="M54,-108.24C54,-135.94 54,-188.3 54,-215.91"/>
</g>
<!-- h -->
<g id="node8" class="node">
<title>h</title>
<ellipse fill="none" stroke="black" cx="162" cy="-234" rx="18" ry="18"/>
<text text-anchor="middle" x="162" y="-230.3" font-family="Times,serif" font-size="14.00">h</text>
</g>
<!-- d&#45;&#45;h -->
<g id="edge8" class="edge">
<title>d--h</title>
<path fill="none" stroke="black" d="M162,-108.24C162,-135.94 162,-188.3 162,-215.91"/>
</g>
<!-- e&#45;&#45;f -->
<g id="edge10" class="edge">
<title>e--f</title>
<path fill="none" stroke="black" d="M36.32,-162C56.3,-162 88.08,-162 107.95,-162"/>
</g>
<!-- e&#45;&#45;h -->
<g id="edge9" class="edge">
<title>e--h</title>
<path fill="none" stroke="black" d="M34.24,-170.12C61.9,-183.95 117.83,-211.92 145.6,-225.8"/>
</g>
<!-- f&#45;&#45;g -->
<g id="edge11" class="edge">
<title>f--g</title>
<path fill="none" stroke="black" d="M113.13,-174.87C100.02,-187.98 79.83,-208.17 66.76,-221.24"/>
</g>
<!-- g&#45;&#45;h -->
<g id="edge12" class="edge">
<title>g--h</title>
<path fill="none" stroke="black" d="M72.32,-234C92.3,-234 124.08,-234 143.95,-234"/>
</g>
</g>
</svg>