<svg xmlns="http://www.w3.org/2000/svg" xmlns:xlink="http://www.w3.org/1999/xlink" width="181pt" height="174pt" viewBox="0.00 0.00 180.95 174.25">
<g id="graph0" class="graph" transform="scale(1 1) rotate(0) translate(4 170.25)">
<title>%3</title>
<polygon fill="white" stroke="transparent" points="-4,4 -4,-170.25 176.95,-170.25 176.95,4 -4,4"/>
<!-- 1 -->
<g id="node1" class="node">
<title>1</title>
<ellipse fill="none" stroke="black" cx="86.48" cy="-148.25" rx="18" ry="18"/>
<text text-anchor="middle" x="86.48" y="-144.55" font-family="Times,serif" font-size="14.00">1</text>
</g>
<!-- 4 -->
<g id="node4" class="node">
<title>4</title>
<ellipse fill="none" stroke="black" cx="44.16" cy="-18" rx="18" ry="18"/>
<text text-anchor="middle" x="44.16" y="-14.3" font-family="Times,serif" font-size="14.00">4</text>
</g>
<!-- 1&#45;&#45;4 -->
<g id="edge1" class="edge">
<title>1--4</title>
<path fill="none" stroke="black" d="M80.86,-130.95C72.76,-106.04 57.91,-60.32 49.8,-35.37"/>
</g>
<!-- 5 -->
<g id="node5" class="node">
<title>5</title>
<ellipse fill="none" stroke="black" cx="18" cy="-98.5" rx="18" ry="18"/>
<text text-anchor="middle" x="18" y="-94.8" font-family="Times,serif" font-size="14.00">5</text>
</g>
<!-- 1&#45;&#45;5 -->
<g id="edge2" class="edge">
<title>1--5</title>
<path fill="none" stroke="black" d="M71.62,-137.45C60.13,-129.11 44.31,-117.61 32.83,-109.27"/>
</g>
<!-- 2 -->
<g id="node2" class="node">
<title>2</title>
<ellipse fill="none" stroke="black" cx="154.95" cy="-98.5" rx="18" ry="18"/>
<text text-anchor="middle" x="154.95" y="-94.8" font-family="Times,serif" font-size="14.00">2</text>
</g>
<!-- 2&#45;&#45;4 -->
<g id="edge3" class="edge">
<title>2--4</title>
<path fill="none" stroke="black" d="M140.01,-87.64C118.75,-72.19 80,-44.04 58.86,-28.68"/>
</g>
<!-- 3 -->
<g id="node3" class="node">
<title>3</title>
<ellipse fill="none" stroke="black" cx="128.8" cy="-18" rx="18" ry="18"/>
<text text-anchor="middle" x="128.8" y="-14.3" font-family="Times,serif" font-size="14.00">3</text>
</g>
<!-- 3&#45;&#45;4 -->
<g id="edge4" class="edge">
<title>3--4</title>
<path fill="none" stroke="black" d="M110.43,-18C96.14,-18 76.41,-18 62.19,-18"/>
</g>
<!-- 3&#45;&#45;5 -->
<g id="edge5" class="edge">
<title>3--5</title>
<path fill="none" stroke="black" d="M113.85,-28.86C92.59,-44.31 53.84,-72.46 32.71,-87.81"/>
</g>
</g>
</svg>