<svg xmlns="http://www.w3.org/2000/svg" xmlns:xlink="http://www.w3.org/1999/xlink" width="154pt" height="143pt" viewBox="0.00 0.00 154.00 143.00">
<g id="graph0" class="graph" transform="scale(1 1) rotate(0) translate(4 139)">
<title>%3</title>
<polygon fill="white" stroke="transparent" points="-4,4 -4,-139 150,-139 150,4 -4,4"/>
<!-- 0 -->
<g id="node1" class="node">
<title>0</title>
<ellipse fill="none" stroke="black" cx="18" cy="-55.04" rx="18" ry="18"/>
<text text-anchor="middle" x="18" y="-51.34" font-family="Times,serif" font-size="14.00">0</text>
</g>
<!-- 2 -->
<g id="node3" class="node">
<title>2</title>
<ellipse fill="none" stroke="black" cx="111.71" cy="-57.26" rx="18" ry="18"/>
<text text-anchor="middle" x="111.71" y="-53.56" font-family="Times,serif" font-size="14.00">2</text>
</g>
<!-- 0&#45;&#45;2 -->
<g id="edge1" class="edge">
<title>0--2</title>
<path fill="none" stroke="black" d="M36.07,-55.47C52.66,-55.86 77.12,-56.44 93.7,-56.84"/>
</g>
<!-- 4 -->
<g id="node5" class="node">
<title>4</title>
<ellipse fill="none" stroke="black" cx="41.74" cy="-108.19" rx="18" ry="18"/>
<text text-anchor="middle" x="41.74" y="-104.49" font-family="Times,serif" font-size="14.00">4</text>
</g>
<!-- 0&#45;&#45;4 -->
<g id="edge2" class="edge">
<title>0--4</title>
<path fill="none" stroke="black" d="M25.38,-71.57C28.21,-77.9 31.44,-85.14 34.28,-91.49"/>
</g>
<!-- 1 -->
<g id="node2" class="node">
<title>1</title>
<ellipse fill="none" stroke="black" cx="128" cy="-117" rx="18" ry="18"/>
<text text-anchor="middle" x="128" y="-113.3" font-family="Times,serif" font-size="14.00">1</text>
</g>
<!-- 3 -->
<g id="node4" class="node">
<title>3</title>
<ellipse fill="none" stroke="black" cx="68.41" cy="-18" rx="18" ry="18"/>
<text text-anchor="middle" x="68.41" y="-14.3" font-family="Times,serif" font-size="14.00">3</text>
</g>
<!-- 2&#45;&#45;3 -->
<g id="edge3" class="edge">
<title>2--3</title>
<path fill="none" stroke="black" d="M98.01,-44.84C92.86,-40.17 87.01,-34.86 81.88,-30.21"/>
</g>
<!-- 3&#45;&#45;4 -->
<g id="edge4" class="edge">
<title>3--4</title>
<path fill="none" stroke="black" d="M63.27,-35.39C58.55,-51.36 51.58,-74.9 46.87,-90.86"/>
</g>
</g>
</svg>