<svg xmlns="http://www.w3.org/2000/svg" xmlns:xlink="http://www.w3.org/1999/xlink" width="188pt" height="188pt" viewBox="0.00 0.00 188.00 188.00">
<g id="graph0" class="graph" transform="scale(1 1) rotate(0) translate(4 184)">
<title>%3</title>
<polygon fill="white" stroke="transparent" points="-4,4 -4,-184 184,-184 184,4 -4,4"/>
<!-- a -->
<g id="node1" class="node">
<title>a</title>
<ellipse fill="none" stroke="black" cx="18" cy="-18" rx="18" ry="18"/>
<text text-anchor="middle" x="18" y="-14.3" font-family="Times,serif" font-size="14.00">a</text>
</g>
<!-- b -->
<g id="node2" class="node">
<title>b</title>
<ellipse fill="none" stroke="black" cx="126" cy="-18" rx="18" ry="18"/>
<text text-anchor="middle" x="126" y="-14.3" font-family="Times,serif" font-size="14.00">b</text>
</g>
<!-- a&#45;&#45;b -->
<g id="edge3" class="edge">
<title>a--b</title>
<path fill="none" stroke="black" d="M36.32,-18C56.3,-18 88.08,-18 107.95,-18"/>
</g>
<!-- d -->
<g id="node4" class="node">
<title>d</title>
<ellipse fill="none" stroke="black" cx="54" cy="-54" rx="18" ry="18"/>
<text text-anchor="middle" x="54" y="-50.3" font-family="Times,serif" font-size="14.00">d</text>
</g>
<!-- a&#45;&#45;d -->
<g id="edge1" class="edge">
<title>a--d</title>
<path fill="none" stroke="black" d="M31,-31C34.22,-34.22 37.67,-37.67 40.9,-40.9"/>
</g>
<!-- e -->
<g id="node5" class="node">
<title>e</title>
<ellipse fill="none" stroke="black" cx="18" cy="-126" rx="18" ry="18"/>
<text text-anchor="middle" x="18" y="-122.3" font-family="Times,serif" font-size="14.00">e</text>
</g>
<!-- a&#45;&#45;e -->
<g id="edge2" class="edge">
<title>a--e</title>
<path fill="none" stroke="black" d="M18,-36.32C18,-56.3 18,-88.08 18,-107.95"/>
</g>
<!-- c -->
<g id="node3" class="node">
<title>c</title>
<ellipse fill="none" stroke="black" cx="162" cy="-54" rx="18" ry="18"/>
<text text-anchor="middle" x="162" y="-50.3" font-family="Times,serif" font-size="14.00">c</text>
</g>
<!-- b&#45;&#45;c -->
<g id="edge4" class="edge">
<title>b--c</title>
<path fill="none" stroke="black" d="M139,-31C142.22,-34.22 145.67,-37.67 148.9,-40.9"/>
</g>
<!-- f -->
<g id="node6" class="node">
<title>f</title>
<ellipse fill="none" stroke="black" cx="126" cy="-126" rx="18" ry="18"/>
<text text-anchor="middle" x="126" y="-122.3" font-family="Times,serif" font-size="14.00">f</text>
</g>
<!-- b&#45;&#45;f -->
<g id="edge5" class="edge">
<title>b--f</title>
<path fill="none" stroke="black" d="M126,-36.32C126,-56.3 126,-88.08 126,-107.95"/>
</g>
<!-- c&#45;&#45;d -->
<g id="edge6" class="edge">
<title>c--d</title>
<path fill="none" stroke="black" d="M143.68,-54C123.7,-54 91.92,-54 72.05,-54"/>
</g>
<!-- g -->
<g id="node7" class="node">
<title>g</title>
<ellipse fill="none" stroke="black" cx="162" cy="-162" rx="18" ry="18"/>
<text text-anchor="middle" x="162" y="-158.3" font-family="Times,serif" font-size="14.00">g</text>
</g>
<!-- c&#45;&#45;g -->
<g id="edge7" class="edge">
<title>c--g</title>
<path fill="none" stroke="black" d="M162,-72.32C162,-92.3 162,-124.08 162,-143.95"/>
</g>
<!-- h -->
<g id="node8" class="node">
<title>h</title>
<ellipse fill="none" stroke="black" cx="54" cy="-162" rx="18" ry="18"/>
<text text-anchor="middle" x="54" y="-158.3" font-family="Times,serif" font-size="14.00">h</text>
</g>
<!-- d&#45;&#45;h -->
<g id="edge8" class="edge">
<title>d--h</title>
<path fill="none" stroke="black" d="M54,-72.32C54,-92.3 54,-124.08 54,-143.95"/>
</g>
<!-- e&#45;&#45;f -->
<g id="edge10" class="edge">
<title>e--f</title>
<path fill="none" stroke="black" d="M36.32,-126C56.3,-126 88.08,-126 107.95,-126"/>
</g>
<!-- e&#45;&#45;h -->
<g id="edge9" class="edge">
<title>e--h</title>
<path fill="none" stroke="black" d="M31,-139C34.22,-142.22 37.67,-145.67 40.9,-148.9"/>
</g>
<!-- f&#45;&#45;g -->
<g id="edge11" class="edge">
<title>f--g</title>
<path fill="none" stroke="black" d="M139,-139C142.22,-142.22 145.67,-145.67 148.9,-148.9"/>
</g>
<!-- g&#45;&#45;h -->
<g id="edge12" class="edge">
<title>g--h</title>
<path fill="none" stroke="black" d="M143.68,-162C123.7,-162 91.92,-162 72.05,-162"/>
</g>
</g>
</svg>