<svg xmlns="http://www.w3.org/2000/svg" xmlns:xlink="http://www.w3.org/1999/xlink" width="170pt" height="169pt" viewBox="0.00 0.00 170.19 169.35">
<g id="graph0" class="graph" transform="scale(1 1) rotate(0) translate(4 165.35)">
<title>%3</title>
<polygon fill="white" stroke="transparent" points="-4,4 -4,-165.35 166.19,-165.35 166.19,4 -4,4"/>
<!-- 1 -->
<g id="node1" class="node">
<title>1</title>
<ellipse fill="none" stroke="black" cx="144.19" cy="-89.17" rx="18" ry="18"/>
<text text-anchor="middle" x="144.19" y="-85.47" font-family="Times,serif" font-size="14.00">1</text>
</g>
<!-- 2 -->
<g id="node2" class="node">
<title>2</title>
<ellipse fill="none" stroke="black" cx="110.54" cy="-18" rx="18" ry="18"/>
<text text-anchor="middle" x="110.54" y="-14.3" font-family="Times,serif" font-size="14.00">2</text>
</g>
<!-- 1&#45;&#45;2 -->
<g id="edge1" class="edge">
<title>1--2</title>
<path fill="none" stroke="black" d="M136.39,-72.67C130.95,-61.17 123.73,-45.9 118.31,-34.42"/>
</g>
<!-- 5 -->
<g id="node5" class="node">
<title>5</title>
<ellipse fill="none" stroke="black" cx="87.07" cy="-143.35" rx="18" ry="18"/>
<text text-anchor="middle" x="87.07" y="-139.65" font-family="Times,serif" font-size="14.00">5</text>
</g>
<!-- 1&#45;&#45;5 -->
<g id="edge2" class="edge">
<title>1--5</title>
<path fill="none" stroke="black" d="M130.94,-101.74C121.72,-110.49 109.46,-122.12 100.25,-130.85"/>
</g>
<!-- 3 -->
<g id="node3" class="node">
<title>3</title>
<ellipse fill="none" stroke="black" cx="32.49" cy="-28.21" rx="18" ry="18"/>
<text text-anchor="middle" x="32.49" y="-24.51" font-family="Times,serif" font-size="14.00">3</text>
</g>
<!-- 2&#45;&#45;3 -->
<g id="edge3" class="edge">
<title>2--3</title>
<path fill="none" stroke="black" d="M92.44,-20.37C79.83,-22.02 63.08,-24.21 50.5,-25.85"/>
</g>
<!-- 4 -->
<g id="node4" class="node">
<title>4</title>
<ellipse fill="none" stroke="black" cx="18" cy="-105.6" rx="18" ry="18"/>
<text text-anchor="middle" x="18" y="-101.9" font-family="Times,serif" font-size="14.00">4</text>
</g>
<!-- 3&#45;&#45;4 -->
<g id="edge4" class="edge">
<title>3--4</title>
<path fill="none" stroke="black" d="M29.13,-46.16C26.79,-58.66 23.68,-75.26 21.34,-87.74"/>
</g>
<!-- 4&#45;&#45;5 -->
<g id="edge5" class="edge">
<title>4--5</title>
<path fill="none" stroke="black" d="M34.02,-114.35C45.18,-120.45 60,-128.55 71.14,-134.64"/>
</g>
</g>
</svg>